<svg width="35" height="35" viewBox="0 0 35 35" fill="none" xmlns="http://www.w3.org/2000/svg">
<path d="M12.0312 12.0312V19.1056C12.034 20.1408 12.3292 21.1541 12.8828 22.0288C13.4365 22.9035 14.226 23.6039 15.1605 24.0494L17.5 25.1562L19.8395 24.0483C20.774 23.6028 21.5635 22.9024 22.1172 22.0277C22.6708 21.153 22.966 20.1397 22.9688 19.1045V12.0312H12.0312ZM20.7812 19.1056C20.7793 19.7264 20.602 20.3341 20.2697 20.8585C19.9375 21.3829 19.4638 21.8028 18.9033 22.0697L17.5 22.7358L16.0967 22.0719C15.5359 21.8048 15.062 21.3846 14.7297 20.8598C14.3974 20.3349 14.2203 19.7268 14.2188 19.1056V14.2188H20.7812V19.1056Z" fill="#253238"/>
<path d="M33.2654 19.0467C33.6755 18.6365 33.9059 18.0802 33.9059 17.5001C33.9059 16.9201 33.6755 16.3638 33.2654 15.9536L26.9359 9.62404L30.1078 6.49373C30.5756 6.6102 31.0689 6.569 31.5109 6.37653C31.953 6.18405 32.3191 5.85107 32.5526 5.42923C32.7861 5.0074 32.8738 4.5203 32.8021 4.04353C32.7305 3.56675 32.5035 3.12694 32.1564 2.79235C31.8092 2.45775 31.3614 2.24708 30.8823 2.19302C30.4032 2.13895 29.9197 2.24452 29.5067 2.49334C29.0937 2.74216 28.7744 3.12031 28.5983 3.56914C28.4222 4.01796 28.3992 4.51235 28.5328 4.97561L25.3894 8.07748L19.0467 1.73373C18.6365 1.32364 18.0802 1.09326 17.5001 1.09326C16.9201 1.09326 16.3638 1.32364 15.9536 1.73373L9.62404 8.06545L6.49373 4.89139C6.6096 4.42343 6.56779 3.93031 6.37479 3.48854C6.1818 3.04676 5.84841 2.68103 5.42634 2.44807C5.00427 2.21511 4.51712 2.12795 4.04046 2.20011C3.5638 2.27227 3.12428 2.49972 2.79008 2.84718C2.45588 3.19463 2.24568 3.64266 2.1921 4.12176C2.13852 4.60087 2.24455 5.08426 2.49374 5.49696C2.74293 5.90965 3.12134 6.22858 3.57029 6.40425C4.01923 6.57993 4.5136 6.60254 4.9767 6.46858L8.07748 9.61092L1.73373 15.9536C1.32364 16.3638 1.09326 16.9201 1.09326 17.5001C1.09326 18.0802 1.32364 18.6365 1.73373 19.0467L8.07748 25.3894L4.9767 28.5317C4.51458 28.3986 4.02145 28.4216 3.57376 28.5973C3.12607 28.7729 2.74881 29.0913 2.50047 29.5032C2.25213 29.915 2.14657 30.3972 2.20016 30.8752C2.25375 31.3531 2.46349 31.8 2.79687 32.1466C3.13025 32.4932 3.56866 32.7201 4.04413 32.7922C4.5196 32.8644 5.00559 32.7776 5.42676 32.5455C5.84793 32.3133 6.18076 31.9487 6.37367 31.5082C6.56657 31.0677 6.60877 30.5758 6.49373 30.1089L9.62404 26.937L15.9536 33.2654C16.3638 33.6755 16.9201 33.9059 17.5001 33.9059C18.0802 33.9059 18.6365 33.6755 19.0467 33.2654L25.3905 26.9228L28.5317 30.0247C28.3986 30.4868 28.4216 30.9799 28.5973 31.4276C28.7729 31.8753 29.0913 32.2526 29.5032 32.5009C29.915 32.7492 30.3972 32.8548 30.8752 32.8012C31.3531 32.7476 31.8 32.5379 32.1466 32.2045C32.4932 31.8711 32.7201 31.4327 32.7922 30.9572C32.8644 30.4818 32.7776 29.9958 32.5455 29.5746C32.3133 29.1534 31.9487 28.8206 31.5082 28.6277C31.0677 28.4348 30.5758 28.3926 30.1089 28.5076L26.937 25.3762L33.2654 19.0467ZM17.5001 31.7189L3.28139 17.5001L17.5001 3.28139L31.7189 17.5001L17.5001 31.7189Z" fill="#253238"/>
</svg>
