<?xml version="1.0" standalone="no"?>
<!DOCTYPE svg PUBLIC "-//W3C//DTD SVG 20010904//EN"
 "http://www.w3.org/TR/2001/REC-SVG-20010904/DTD/svg10.dtd">
<svg version="1.0" xmlns="http://www.w3.org/2000/svg"
 width="1943.000000pt" height="1943.000000pt" viewBox="0 0 1943.000000 1943.000000"
 preserveAspectRatio="xMidYMid meet">
<metadata>
Created by potrace 1.14, written by Peter Selinger 2001-2017
</metadata>
<g transform="translate(0.000000,1943.000000) scale(0.100000,-0.100000)"
fill="#000000" stroke="none">
<path d="M13738 13376 c-1 -2 -48 -7 -103 -11 -55 -3 -113 -8 -130 -10 -90 -9
-143 -16 -165 -20 -14 -3 -34 -7 -45 -9 -40 -8 -270 -57 -285 -61 -352 -94
-536 -158 -805 -283 -290 -135 -507 -269 -778 -483 -532 -419 -894 -939 -1092
-1567 -41 -130 -69 -236 -81 -302 -2 -14 -9 -47 -14 -75 -27 -147 -35 -248
-35 -465 0 -230 11 -352 50 -540 3 -14 8 -41 11 -60 3 -19 18 -78 31 -130 29
-107 32 -136 18 -134 -5 1 -46 5 -90 8 -44 4 -89 8 -100 10 -11 3 -28 5 -37 5
-9 1 -30 26 -49 59 -163 289 -447 534 -869 747 -189 96 -374 164 -590 220 -46
11 -190 44 -220 49 -19 3 -46 8 -60 11 -14 3 -56 7 -95 10 -98 7 -119 13 -134
36 -7 12 -8 18 -2 15 7 -4 8 -1 5 8 -3 9 -10 14 -14 11 -4 -3 -13 9 -20 25 -7
17 -16 30 -21 30 -5 0 -9 7 -9 16 0 9 -8 24 -17 33 -10 9 -26 31 -36 48 -17
32 -17 33 0 28 10 -3 8 0 -4 6 -13 7 -23 18 -23 26 0 7 -5 13 -12 13 -6 0 -9
3 -6 6 4 3 -5 22 -18 41 -13 20 -25 42 -25 49 -2 16 -6 33 -9 37 -3 4 -12 61
-14 87 0 14 -4 27 -8 30 -4 3 2 12 14 19 19 12 20 11 16 -7 -4 -15 -2 -19 8
-15 8 3 12 9 9 13 -3 5 0 12 6 16 7 4 9 3 5 -4 -3 -6 0 -17 8 -24 11 -12 11
-17 1 -32 -15 -20 -25 -22 -35 -6 -5 9 -9 9 -14 1 -4 -6 -3 -11 3 -11 5 0 8
-9 6 -20 -3 -13 0 -18 7 -14 7 5 8 2 4 -7 -4 -8 0 -5 8 5 9 11 16 15 16 10 0
-6 -3 -14 -7 -18 -11 -10 -12 -36 -2 -36 5 0 9 -5 9 -11 0 -5 -4 -8 -9 -5 -5
4 -8 -2 -6 -11 2 -10 4 -22 4 -26 1 -5 6 -5 11 -2 6 3 10 1 10 -5 0 -6 5 -8
10 -5 6 3 10 1 10 -5 0 -7 -7 -9 -17 -5 -13 4 -15 3 -7 -5 6 -6 18 -8 28 -4
13 5 14 9 5 20 -14 17 2 18 21 2 12 -11 12 -10 1 5 -9 12 -21 15 -35 11 -17
-5 -19 -4 -8 7 6 7 12 18 12 23 0 6 -5 3 -11 -6 -5 -10 -15 -18 -21 -18 -7 0
-7 4 1 14 6 7 8 22 4 32 -6 17 -5 17 10 5 10 -7 17 -9 17 -3 0 6 -5 12 -11 14
-7 2 -13 16 -15 32 -2 23 0 25 12 15 9 -7 14 -8 14 -1 0 6 -5 12 -12 14 -7 3
-5 14 8 33 10 16 13 26 7 22 -7 -5 -18 -5 -24 -1 -8 4 -7 9 2 15 12 7 11 9 -1
10 -8 1 -22 2 -30 3 -8 1 -20 -2 -27 -7 -6 -4 -14 -3 -19 4 -4 7 -3 9 3 6 6
-4 13 0 17 8 3 9 12 12 23 8 17 -5 17 -5 0 8 -16 13 -16 14 7 15 16 1 23 -3
20 -11 -3 -7 2 -15 12 -19 14 -5 15 -4 4 9 -7 8 -9 15 -4 15 5 0 -4 12 -21 26
-16 14 -22 23 -13 20 9 -3 19 2 23 11 6 18 -13 35 -28 26 -5 -3 -7 0 -5 8 3 8
11 13 17 11 7 -1 10 2 6 8 -3 5 0 10 7 10 9 0 9 3 -2 10 -19 12 -19 37 -2 73
7 16 11 31 9 34 -3 2 -8 -5 -12 -16 -3 -12 -11 -21 -16 -21 -12 0 -11 17 2 25
6 4 8 13 5 21 -3 7 3 18 12 23 9 6 12 11 7 11 -6 0 -16 -5 -23 -12 -17 -17
-15 -2 4 27 10 15 12 25 5 25 -6 0 -11 -6 -11 -12 0 -9 -4 -8 -11 2 -8 11 -9
9 -3 -10 6 -22 5 -23 -9 -11 -13 10 -14 18 -6 32 5 11 13 17 17 15 12 -7 35
10 38 28 3 18 -19 38 -36 34 -7 -2 -15 3 -17 10 -3 7 1 11 8 10 7 -2 13 3 14
10 0 7 11 22 25 33 21 17 22 19 3 10 -12 -6 -25 -16 -28 -21 -3 -6 -11 -10
-17 -10 -6 0 -6 6 2 15 10 12 10 19 2 27 -20 20 -13 32 6 15 10 -10 22 -17 27
-17 5 0 0 7 -11 16 -18 14 -18 15 6 9 21 -5 22 -4 7 5 -9 6 -21 9 -26 5 -5 -3
-12 -1 -16 5 -3 5 -2 10 4 10 6 0 15 10 22 21 8 15 8 19 0 15 -6 -4 -11 -2
-11 5 0 7 9 9 23 6 21 -6 21 -6 2 9 -17 13 -20 12 -30 -3 -5 -10 -16 -18 -22
-19 -28 -2 -33 -4 -33 -14 0 -5 3 -9 8 -9 28 5 35 -2 16 -16 -19 -15 -19 -15
1 -9 15 4 14 2 -5 -11 -14 -9 -18 -14 -9 -12 11 4 15 -2 15 -23 0 -16 -4 -26
-9 -23 -6 3 -7 1 -3 -6 4 -6 12 -9 17 -6 5 4 9 1 9 -4 0 -6 -4 -11 -9 -11 -6
0 -8 -9 -6 -20 3 -14 0 -18 -8 -14 -7 3 -1 -4 13 -15 22 -19 23 -23 9 -34 -10
-8 -15 -24 -13 -47 2 -24 0 -30 -7 -20 -7 11 -8 8 -5 -10 2 -14 9 -24 15 -23
6 2 11 -2 11 -7 0 -6 -4 -10 -8 -10 -5 0 -9 -7 -9 -15 0 -8 4 -12 9 -9 4 3 8
0 8 -5 0 -6 -6 -11 -12 -11 -9 0 -8 -4 2 -10 10 -6 11 -10 3 -10 -7 0 -13 -5
-13 -11 0 -8 6 -7 18 2 15 13 16 12 4 -3 -8 -9 -10 -23 -6 -29 4 -8 3 -9 -4
-5 -7 4 -12 2 -12 -4 0 -7 6 -10 13 -7 6 2 10 12 9 22 -3 16 -1 17 12 6 21
-17 21 -18 -11 -36 -16 -9 -21 -14 -12 -12 9 3 16 -1 16 -8 0 -8 -7 -11 -16
-8 -11 4 -10 0 4 -11 11 -10 15 -15 9 -12 -7 3 -10 -7 -9 -29 2 -19 -1 -35 -5
-35 -4 0 -8 15 -8 33 -1 48 -8 93 -17 107 -5 8 -4 11 3 6 8 -4 10 4 6 26 -11
68 -12 148 -3 154 6 3 2 12 -8 20 -11 8 -13 13 -5 14 6 0 12 5 12 11 0 5 -3 8
-7 6 -5 -3 -8 25 -7 61 0 37 -5 73 -10 81 -8 11 -8 13 0 8 15 -8 13 75 -1 85
-6 5 -5 8 4 8 10 0 11 3 3 13 -12 14 -11 35 1 55 5 6 5 12 0 12 -4 0 -9 18 -9
40 -1 39 8 51 22 28 5 -7 3 -8 -7 -3 -11 7 -12 6 -2 -7 7 -8 9 -19 5 -23 -4
-5 -1 -5 7 0 10 6 12 4 6 -4 -6 -10 -3 -11 12 -3 15 8 22 7 31 -9 7 -10 8 -19
3 -19 -6 0 -13 5 -16 10 -10 16 -28 11 -21 -6 3 -8 2 -13 -2 -10 -4 2 -8 -13
-8 -34 0 -30 3 -37 15 -33 14 4 14 3 1 -5 -8 -6 -17 -9 -20 -7 -4 2 -7 -2 -7
-10 0 -11 4 -12 14 -4 7 6 13 8 13 3 0 -5 4 -3 9 5 5 8 8 23 6 33 -4 20 11 25
18 6 2 -7 3 -5 2 4 -2 10 1 21 6 24 5 3 7 10 4 15 -4 5 -1 9 6 9 7 0 4 7 -7
15 -10 8 -14 15 -9 15 6 0 -3 9 -19 19 l-28 19 31 23 c36 27 38 35 10 44 -11
4 -18 10 -14 13 6 7 10 8 38 11 9 1 8 4 -2 10 -8 5 -21 7 -30 4 -9 -3 -4 7 11
20 24 23 25 26 10 31 -10 4 -18 17 -19 33 -1 26 0 27 13 8 8 -10 14 -14 14 -8
0 7 -4 15 -10 18 -5 3 -10 11 -10 17 0 6 7 5 18 -3 16 -13 16 -12 2 5 -13 16
-12 20 5 33 15 12 16 14 3 10 -9 -3 -19 -3 -21 1 -2 4 -3 2 -1 -4 3 -13 -22
-59 -32 -57 -4 1 -10 7 -14 13 -5 9 -9 9 -14 1 -4 -6 -2 -11 4 -11 6 0 8 -5 4
-11 -4 -8 -9 -7 -16 2 -8 11 -9 10 -4 -3 3 -10 1 -18 -4 -18 -14 0 -12 23 3
39 10 12 9 13 -7 7 -15 -5 -17 -4 -8 7 7 8 9 17 5 21 -9 9 -11 46 -2 40 4 -2
10 0 14 6 3 5 1 10 -5 10 -6 0 -8 5 -4 11 4 8 9 7 15 -2 4 -7 5 -17 2 -23 -4
-5 -1 -6 7 -1 9 5 11 4 6 -3 -5 -8 -1 -10 11 -6 10 3 7 -1 -6 -9 -15 -9 -20
-17 -12 -21 6 -4 11 -2 11 4 0 6 5 8 11 4 8 -4 7 -9 -2 -15 -7 -4 -10 -11 -6
-15 18 -18 30 37 15 68 -5 10 -4 19 2 23 5 3 10 -1 10 -9 0 -8 4 -18 10 -21 6
-3 7 1 4 10 -4 8 0 23 7 33 13 16 13 16 -5 2 -18 -14 -19 -13 -13 3 8 22 -10
60 -24 52 -14 -9 -11 5 6 21 8 8 11 22 8 32 -6 15 -5 16 13 2 19 -14 19 -14 1
7 -18 21 -18 22 1 32 11 6 23 7 27 3 5 -4 5 -1 1 6 -5 8 -13 9 -25 3 -10 -6
-23 -6 -32 0 -13 8 -5 14 15 10 23 -5 23 25 0 47 -13 14 -24 29 -24 33 0 14
18 11 23 -3 4 -10 6 -10 6 -1 2 21 -20 25 -39 8 -19 -17 -40 -13 -40 8 0 7 4
6 10 -3 6 -9 10 -10 10 -3 0 6 -4 14 -8 17 -5 3 -10 36 -11 73 -1 37 -4 69 -6
72 -7 6 -967 10 -998 4 -31 -6 -35 -15 -42 -113 -6 -92 -7 -743 -1 -860 8
-144 22 -311 31 -370 2 -14 6 -45 10 -70 19 -132 24 -157 41 -230 22 -90 87
-274 129 -363 19 -41 35 -78 35 -82 0 -7 -2465 1 -2625 9 -144 7 -267 16 -289
21 -12 2 -38 7 -58 10 -51 7 -203 42 -259 59 -230 71 -579 317 -690 486 -106
160 -147 290 -147 465 -1 286 124 514 390 714 150 112 364 219 525 261 139 36
234 50 463 65 156 11 1271 17 3400 19 l2365 3 5 49 c3 27 4 187 2 355 l-3 306
-3082 -4 -3082 -5 -140 -35 c-551 -136 -861 -274 -1185 -527 -86 -66 -273
-254 -340 -339 -208 -267 -301 -524 -303 -837 -2 -162 4 -219 33 -336 128
-512 561 -949 1228 -1236 93 -41 315 -113 465 -153 l132 -34 595 -5 c327 -3
1153 -8 1835 -12 l1240 -6 47 -46 c27 -25 48 -53 48 -61 0 -8 3 -12 6 -8 9 8
164 -145 158 -155 -3 -5 2 -8 12 -6 12 2 18 -2 16 -10 -1 -8 1 -11 5 -9 5 3
17 -1 27 -9 17 -12 17 -16 5 -31 -13 -16 -12 -17 3 -4 15 11 21 9 48 -18 17
-16 34 -30 38 -31 4 0 7 -4 7 -9 0 -5 4 -13 9 -18 5 -5 6 -3 2 5 -10 17 4 15
23 -3 9 -8 28 -26 44 -40 15 -15 24 -31 21 -37 -4 -7 -2 -8 5 -4 6 4 8 12 5
18 -5 7 -2 8 5 4 7 -5 10 -15 6 -25 -5 -12 -3 -13 6 -4 9 9 23 3 60 -24 27
-19 49 -39 49 -44 0 -5 3 -8 8 -8 20 3 32 -3 32 -17 0 -8 4 -13 9 -10 14 9 71
-24 71 -42 0 -15 2 -15 10 -2 6 10 10 11 10 3 0 -7 6 -13 14 -13 7 0 25 -9 40
-21 14 -11 26 -17 26 -13 0 4 8 0 18 -8 9 -8 41 -26 70 -38 28 -13 52 -29 52
-36 0 -6 6 -12 13 -11 30 1 47 -4 47 -14 0 -5 -5 -7 -12 -3 -6 4 -8 3 -4 -4 3
-5 0 -13 -6 -15 -8 -4 -9 -6 -2 -6 6 -1 17 5 24 13 12 15 40 11 40 -5 0 -4 -6
-6 -14 -3 -8 3 -17 0 -22 -7 -5 -8 -2 -11 8 -6 9 3 20 1 26 -5 6 -6 12 -6 17
3 6 8 4 10 -5 4 -9 -5 -11 -4 -6 3 5 8 25 3 65 -18 32 -16 62 -26 66 -22 5 4
5 -1 2 -10 -4 -10 -2 -18 4 -18 6 0 7 -5 4 -10 -4 -6 -3 -10 2 -9 26 5 35 -2
30 -23 -5 -19 -4 -21 6 -8 12 16 35 19 52 8 6 -3 23 -4 39 -3 32 4 76 -13 76
-29 0 -6 5 -4 11 4 9 13 10 13 6 0 -4 -18 -39 -27 -35 -10 2 7 -8 14 -21 16
l-24 4 26 -20 c14 -11 30 -20 36 -20 5 0 15 -8 20 -17 6 -10 11 -13 11 -7 0 5
-6 16 -12 23 -11 11 -10 13 4 8 10 -4 16 -1 14 6 -1 7 -1 9 1 4 3 -4 8 -5 13
-2 5 3 21 0 37 -7 15 -6 31 -11 36 -10 4 1 7 -2 7 -6 0 -4 8 -9 18 -10 20 -2
56 -10 60 -12 1 -2 7 -4 12 -5 6 -1 12 -4 15 -5 3 -1 8 -3 13 -4 4 -1 17 -7
28 -14 12 -6 25 -8 29 -4 4 4 4 -4 0 -17 -4 -13 -9 -40 -10 -60 -16 -191 -187
-428 -422 -584 -86 -57 -137 -85 -269 -143 -32 -14 -170 -57 -219 -69 -16 -4
-39 -9 -50 -12 -143 -35 -230 -42 -582 -49 -191 -3 -4457 -15 -5438 -14 l-180
0 1 -333 c1 -182 2 -337 3 -343 1 -9 608 -11 2444 -9 2912 4 3654 12 3757 40
8 2 40 7 70 10 30 4 84 13 120 21 36 7 76 15 90 18 64 10 293 77 367 107 15 6
37 15 48 19 396 153 759 401 976 666 103 127 201 305 215 391 3 21 11 41 16
44 6 4 5 9 -3 12 -8 3 -9 6 -2 6 6 1 9 10 5 23 -3 14 -1 19 6 14 6 -3 14 -1
18 5 4 7 3 9 -4 5 -6 -3 -13 -2 -17 4 -3 5 -1 10 4 10 6 0 11 5 11 11 0 5 -6
7 -12 3 -10 -5 -10 -4 -1 6 6 7 9 19 6 27 -5 12 -1 14 18 9 l24 -7 -23 14
c-22 13 -21 14 25 13 26 -1 53 -5 60 -9 6 -4 13 -1 16 5 3 10 7 10 19 0 11 -9
18 -10 23 -2 3 6 10 8 15 5 19 -12 100 -14 94 -3 -5 7 -2 8 6 3 19 -12 150
-12 150 0 0 6 3 6 8 -1 4 -7 26 -10 50 -8 26 2 40 -1 37 -7 -4 -5 -11 -6 -17
-3 -6 4 -8 2 -4 -4 3 -6 16 -9 27 -7 16 3 18 1 10 -8 -7 -9 -7 -17 1 -27 8
-12 9 -12 4 3 -3 9 0 17 5 17 7 0 9 -11 7 -25 -5 -22 -3 -23 10 -13 13 11 15
10 9 -5 -4 -10 -3 -16 2 -13 4 3 16 -3 26 -14 15 -17 16 -22 4 -37 -13 -16
-12 -17 2 -5 14 11 27 0 95 -85 87 -108 322 -349 424 -434 35 -30 71 -60 78
-67 8 -7 73 -57 145 -111 412 -309 889 -542 1371 -671 141 -38 304 -74 386
-86 19 -3 47 -7 61 -10 l26 -5 -1 -157 c0 -149 1 -157 19 -158 11 -1 51 -2 88
-3 41 -1 66 -5 62 -11 -3 -5 -13 -7 -23 -4 -14 5 -14 4 -3 -4 8 -6 21 -8 29
-5 12 5 12 2 2 -17 -8 -15 -8 -20 -1 -16 6 4 11 2 11 -4 0 -6 5 -8 11 -4 7 4
9 0 5 -14 -8 -23 8 -39 20 -21 5 8 3 9 -6 4 -8 -5 -11 -3 -8 6 3 8 11 13 18
11 7 -1 23 5 37 13 24 16 25 16 19 -3 -7 -22 1 -31 35 -37 15 -3 23 2 26 16 5
16 8 18 14 7 7 -10 9 -9 9 4 0 25 16 30 31 11 12 -15 12 -16 -3 -10 -10 4 -18
2 -18 -4 0 -7 10 -9 27 -4 23 5 25 4 14 -9 -8 -9 -9 -16 -5 -16 5 0 15 9 22
20 7 11 17 20 24 20 6 0 3 -9 -7 -20 -17 -18 -17 -20 -2 -14 9 3 17 10 17 15
0 5 12 2 28 -7 20 -12 22 -12 9 -1 -10 8 -14 18 -9 21 5 3 17 -3 26 -13 17
-18 16 -20 -1 -30 -10 -6 -13 -11 -7 -11 19 0 35 25 23 37 -7 7 -2 15 15 26
25 17 25 17 21 -13 -2 -19 2 -33 13 -42 16 -12 16 -11 2 6 -14 18 -13 19 3 13
9 -3 17 -2 17 3 0 6 -7 10 -15 10 -8 0 -15 5 -15 10 0 15 16 12 34 -6 9 -8 16
-11 16 -5 0 5 12 8 26 5 14 -3 32 0 39 6 8 7 16 7 19 2 3 -6 -1 -13 -10 -16
-9 -4 -14 -9 -11 -12 6 -7 47 18 47 29 0 4 -4 6 -9 2 -5 -3 -12 -1 -15 4 -3 5
1 12 9 15 9 3 18 -1 21 -9 4 -8 10 -12 15 -9 5 3 9 0 9 -7 0 -8 7 -6 19 5 18
16 20 16 37 -1 16 -16 17 -16 12 -1 -5 12 -2 16 13 15 10 -1 19 -5 19 -10 0
-4 6 -7 14 -5 8 2 22 -6 30 -17 15 -19 16 -19 9 -1 -4 14 -3 17 6 12 6 -4 18
-3 26 4 10 9 20 7 40 -6 23 -15 24 -18 9 -29 -15 -10 -15 -12 -1 -12 25 0 29
25 7 40 -11 8 -17 17 -12 22 4 5 1 5 -5 1 -15 -8 -18 10 -4 18 5 3 16 -6 25
-19 9 -14 21 -23 26 -20 6 4 10 2 10 -3 0 -6 8 -13 17 -16 15 -6 15 -4 -2 14
-20 22 -8 28 14 7 11 -10 12 -9 6 2 -6 11 -4 13 8 8 12 -4 14 -2 10 11 -6 15
-5 15 10 3 11 -9 17 -10 17 -2 0 6 -5 11 -11 11 -8 0 -7 5 2 16 12 14 14 14
20 -3 6 -14 8 -15 8 -2 1 22 -10 31 -24 19 -9 -8 -14 -6 -19 5 -3 9 -2 13 3
10 5 -3 13 0 16 5 5 8 14 5 28 -7 18 -16 17 -14 -3 15 -17 22 -29 30 -42 26
-10 -3 -18 -1 -18 4 0 17 28 21 47 7 10 -8 23 -14 28 -15 6 0 3 5 -5 10 -8 5
-16 14 -16 20 -1 5 -2 15 -3 20 0 6 -6 10 -12 10 -8 0 -8 -5 1 -15 7 -8 8 -15
3 -15 -5 0 -19 14 -32 31 -16 22 -20 34 -12 43 6 7 7 16 3 20 -4 4 5 5 21 1
17 -5 27 -3 27 4 0 6 -8 8 -17 5 -14 -4 -12 -1 5 14 l22 21 -27 28 c-16 15
-30 28 -33 28 -3 0 -14 6 -25 13 -18 11 -16 11 13 7 24 -4 31 -2 26 6 -4 8 -3
9 5 5 6 -4 9 -12 6 -17 -3 -5 1 -6 9 -3 9 3 14 9 11 13 -2 4 1 8 8 8 40 1 348
42 357 48 3 2 26 6 50 10 25 3 52 8 60 10 8 2 31 7 50 10 155 25 568 154 724
225 25 11 48 20 51 20 23 0 377 184 500 260 136 84 410 277 457 323 13 13 174
144 275 225 l53 42 -77 76 c-83 81 -352 310 -541 460 l-116 92 -130 -132 c-72
-72 -144 -142 -161 -154 -16 -12 -48 -36 -70 -53 -48 -38 -248 -169 -290 -191
-16 -8 -73 -37 -125 -65 -199 -103 -453 -198 -705 -262 -181 -47 -278 -65
-305 -58 -13 3 -18 1 -13 -5 4 -8 -4 -9 -25 -5 -18 4 -32 3 -32 -2 0 -4 -7 -8
-15 -8 -8 0 -12 4 -9 9 3 4 0 8 -5 8 -6 0 -11 -5 -11 -12 0 -6 -6 -4 -13 7
-10 12 -19 15 -28 9 -9 -5 -7 2 5 20 14 22 15 28 4 23 -11 -4 -14 1 -10 19 5
26 27 28 27 3 0 -8 5 -17 10 -21 6 -5 5 -8 -4 -8 -10 0 -11 -3 -2 -13 6 -8 7
-18 3 -22 -4 -5 0 -4 8 1 8 4 22 9 30 9 23 0 18 30 -5 30 -11 0 -21 8 -23 18
-2 9 2 17 8 17 6 0 9 -4 6 -9 -3 -4 4 -8 16 -7 33 2 32 23 -2 34 -17 6 -29 15
-28 19 1 4 -3 18 -10 31 -7 12 -9 22 -5 23 4 0 15 2 24 4 13 2 16 -4 14 -31
-1 -19 2 -34 6 -34 4 0 6 20 5 46 -2 46 8 69 17 37 3 -10 4 -5 3 10 -2 30 -21
48 -41 41 -6 -3 -12 2 -12 10 0 11 7 14 24 10 13 -4 23 -2 23 5 0 6 -8 8 -17
5 -13 -4 -10 1 7 16 21 19 22 23 8 31 -23 13 -53 61 -36 58 25 -3 39 1 33 10
-3 5 -1 12 5 16 5 3 10 14 9 23 0 14 -2 14 -8 -2 -7 -18 -8 -18 -29 4 -12 13
-19 26 -16 29 3 3 12 -3 20 -13 8 -11 14 -15 14 -10 0 6 -5 15 -12 22 -9 9 -9
12 -1 12 7 0 15 -4 18 -10 3 -5 11 -10 18 -10 6 0 3 6 -7 13 -16 12 -16 14 4
42 l22 30 -27 -29 c-14 -15 -29 -26 -32 -23 -6 7 37 61 52 66 6 1 12 5 15 8 3
4 -1 2 -9 -2 -11 -6 -13 -4 -8 11 7 18 6 18 -6 2 -8 -10 -17 -15 -21 -11 -4 4
-4 -1 0 -12 7 -20 7 -20 -13 0 -11 11 -19 22 -17 24 2 2 -2 11 -9 19 -10 13
-9 15 6 9 10 -4 21 -7 23 -7 3 0 2 -4 -1 -10 -4 -6 1 -7 11 -3 14 5 14 7 -5
18 -12 6 -19 14 -15 18 4 4 13 2 21 -5 7 -6 16 -8 20 -4 3 3 1 6 -6 6 -7 0
-10 4 -6 9 3 6 -3 8 -14 6 -11 -2 -22 3 -25 10 -3 10 2 12 20 9 17 -3 23 -1
19 6 -4 6 -12 10 -18 9 -25 -3 -38 1 -32 11 4 6 10 8 14 5 5 -2 17 2 27 10 10
8 14 15 8 15 -5 0 -15 -5 -22 -12 -7 -7 -12 -8 -12 -2 0 5 5 15 12 22 9 9 9
12 -3 13 -7 1 -18 1 -22 0 -5 -1 -7 4 -4 11 5 14 9 14 42 3 12 -4 15 -3 9 2
-6 4 -10 20 -8 36 1 15 -2 27 -7 27 -6 0 -7 5 -4 10 4 6 11 8 16 5 5 -4 6 2 2
11 -4 11 -8 13 -11 6 -2 -7 -8 -12 -13 -12 -16 0 3 31 30 46 15 9 18 13 6 9
-38 -13 -55 -14 -55 -4 0 5 9 9 19 9 11 0 23 5 27 11 4 8 -1 9 -17 4 l-24 -7
23 24 c12 13 22 28 22 34 0 5 -4 3 -8 -4 -7 -10 -15 -8 -36 9 -15 12 -25 24
-22 27 3 3 14 -2 24 -11 13 -12 21 -13 32 -6 13 9 12 10 -2 5 -20 -6 -34 10
-16 18 11 5 11 7 0 12 -15 7 -6 24 11 20 7 -1 9 -1 4 1 -4 3 -5 8 -2 13 3 4
-2 13 -10 20 -12 10 -15 10 -15 0 0 -17 -13 -4 -16 16 -2 10 3 13 12 10 36
-15 48 -17 28 -4 -18 10 -19 15 -9 25 7 6 15 10 18 7 2 -3 4 5 3 18 0 13 4 23
11 23 6 0 14 3 18 7 13 13 -22 2 -47 -14 -25 -16 -38 -15 -38 4 0 5 4 7 8 4 4
-2 19 4 32 15 14 10 20 19 14 19 -5 0 -15 -5 -22 -12 -9 -9 -12 -9 -12 0 0 6
8 16 18 21 14 8 14 11 2 12 -8 1 -20 1 -26 0 -6 -1 -11 6 -11 14 0 10 7 13 24
9 13 -4 23 -2 23 5 0 6 -8 8 -17 5 -13 -4 -10 1 7 16 21 19 22 23 8 31 -23 13
-53 61 -36 58 25 -3 39 1 33 10 -3 5 -1 12 5 16 5 3 10 14 9 23 0 14 -2 14 -8
-2 -7 -18 -8 -18 -29 4 -12 13 -19 26 -16 29 3 3 12 -3 20 -13 8 -11 14 -15
14 -10 0 6 -5 15 -12 22 -9 9 -9 12 -1 12 7 0 15 -4 18 -10 3 -5 11 -10 18
-10 6 0 3 6 -7 13 -16 12 -16 14 4 42 l22 30 -27 -29 c-14 -15 -29 -26 -32
-22 -4 3 3 16 15 29 27 29 27 39 2 55 -15 9 -20 9 -20 0 0 -15 -13 -1 -16 17
-3 19 6 19 34 -1 13 -9 25 -14 28 -12 2 3 -7 11 -21 18 -14 7 -25 17 -25 22 0
5 5 6 10 3 6 -3 10 -1 10 4 0 6 5 10 11 8 6 -1 14 5 16 13 3 9 1 11 -4 5 -12
-14 -33 -17 -47 -6 -14 12 -41 -3 -32 -17 9 -15 -14 -26 -27 -13 -8 8 -8 11 1
11 7 0 12 5 12 11 0 5 -6 7 -12 3 -8 -5 -7 0 2 11 8 10 14 20 12 21 -10 11
-19 65 -12 69 5 3 5 16 0 30 -6 16 -6 27 1 31 6 4 5 11 -3 22 -10 12 -10 14 0
8 9 -5 11 2 6 31 -3 21 -8 41 -10 45 -2 4 0 10 6 13 8 5 7 12 -2 23 -10 13
-10 14 0 8 9 -6 11 -1 8 18 -3 14 -8 31 -12 37 -4 7 -3 9 4 5 6 -3 13 -2 17 4
3 5 2 10 -2 10 -5 0 -10 12 -11 27 -1 14 1 23 5 19 7 -6 13 -29 15 -53 1 -7 5
-13 10 -13 5 0 6 -5 2 -11 -4 -8 -9 -7 -15 2 -6 10 -9 10 -9 2 0 -6 4 -14 10
-18 5 -3 7 -12 3 -20 -3 -9 1 -15 8 -15 11 0 11 -3 -1 -10 -11 -7 -11 -10 -2
-10 7 0 10 -5 6 -11 -5 -8 -9 -8 -14 1 -5 9 -9 9 -14 1 -4 -6 -3 -11 3 -11 5
0 8 -9 6 -20 -2 -11 0 -22 5 -25 5 -3 6 -13 3 -22 -5 -13 -2 -15 13 -10 17 6
17 6 2 -6 -15 -12 -15 -14 0 -23 15 -10 15 -11 -1 -11 -9 0 -17 4 -17 9 0 5
-5 6 -11 2 -8 -4 -7 -9 2 -15 8 -5 10 -9 6 -9 -4 0 -3 -9 3 -19 6 -13 7 -22 0
-26 -5 -3 -8 -16 -6 -28 3 -12 5 -27 5 -34 1 -7 14 -10 39 -7 20 2 42 5 49 6
7 1 10 5 7 9 -2 5 -12 5 -21 2 -19 -7 -12 9 19 43 15 17 16 21 3 21 -8 0 -13
-2 -10 -5 2 -2 -2 -11 -10 -18 -7 -8 -15 -19 -18 -26 -2 -7 -8 -10 -12 -6 -4
4 1 20 11 36 17 30 13 69 -6 57 -5 -3 -10 -3 -11 2 0 4 -2 16 -4 26 -2 11 1
16 8 14 7 -3 11 -10 9 -17 -3 -11 0 -11 12 0 9 7 15 20 15 29 -1 13 -2 13 -6
-2 -2 -9 -8 -15 -13 -12 -5 3 -7 12 -3 20 6 18 -1 19 -30 3 -19 -9 -20 -9 -10
3 6 8 11 19 10 24 0 6 8 12 19 13 10 2 24 9 29 14 7 7 2 8 -15 3 l-25 -7 23
24 c12 13 22 28 22 34 0 5 -4 3 -8 -4 -7 -10 -15 -8 -36 9 -15 12 -25 24 -22
27 3 3 14 -2 24 -11 13 -12 21 -13 32 -6 13 9 12 10 -2 5 -20 -6 -34 10 -16
18 11 5 11 7 0 12 -15 7 -6 24 11 20 7 -1 9 -1 4 1 -4 3 -5 8 -2 13 3 4 -2 13
-10 20 -12 10 -15 10 -15 0 0 -17 -13 -4 -16 16 -2 10 3 13 12 10 36 -15 48
-17 28 -4 -18 10 -19 15 -9 25 7 6 15 10 18 7 2 -3 4 5 3 18 0 13 4 23 11 23
6 0 14 3 18 7 13 13 -22 2 -47 -14 -25 -16 -38 -15 -38 4 0 5 4 7 8 4 4 -2 19
4 32 15 14 10 20 19 14 19 -5 0 -15 -5 -21 -11 -9 -9 -12 -7 -10 10 1 16 6 20
22 15 20 -6 20 -6 0 9 -15 11 -22 12 -27 4 -4 -7 -8 -10 -9 -7 0 3 -2 13 -4
23 -4 21 4 22 33 1 13 -9 25 -14 28 -12 2 3 -7 11 -21 18 -14 7 -25 17 -25 22
0 5 5 6 10 3 6 -3 10 -1 10 4 0 6 5 10 11 8 6 -1 14 5 16 13 3 9 1 11 -4 5
-12 -14 -33 -17 -47 -6 -14 12 -41 -3 -32 -17 9 -15 -14 -26 -27 -13 -8 8 -8
11 1 11 7 0 12 5 12 11 0 5 -5 7 -12 3 -7 -5 -8 -3 -2 7 11 18 12 28 3 61 -4
15 -4 30 1 33 5 3 5 16 0 30 -6 16 -6 27 1 31 6 4 5 11 -3 22 -10 12 -10 14 0
8 9 -5 11 2 6 31 -3 21 -8 41 -10 45 -2 4 0 10 6 13 8 5 7 12 -2 23 -10 13
-10 14 0 8 9 -6 11 -1 8 18 -3 14 -8 31 -12 37 -4 7 -3 9 4 5 6 -3 13 -2 17 4
3 5 2 10 -2 10 -5 0 -10 12 -11 27 -1 14 1 23 5 19 7 -6 13 -29 15 -53 1 -7 5
-13 10 -13 5 0 6 -5 2 -11 -4 -8 -9 -7 -15 2 -6 10 -9 10 -9 2 0 -6 4 -14 10
-18 5 -3 7 -12 3 -20 -3 -9 1 -15 8 -15 11 0 11 -3 -1 -10 -11 -7 -11 -10 -2
-10 7 0 10 -5 6 -11 -5 -8 -9 -8 -14 1 -5 9 -9 9 -14 1 -4 -6 -3 -11 3 -11 5
0 8 -9 6 -20 -2 -11 0 -22 5 -25 5 -3 6 -13 3 -22 -5 -13 -2 -15 13 -10 17 6
17 6 2 -6 -15 -12 -15 -14 0 -23 15 -10 15 -11 -1 -11 -9 0 -17 4 -17 9 0 5
-5 6 -11 2 -8 -4 -7 -9 2 -15 8 -5 10 -9 6 -9 -4 0 -3 -9 3 -19 6 -13 7 -22 0
-26 -5 -3 -8 -16 -6 -28 3 -12 5 -27 5 -34 1 -7 14 -10 39 -7 20 2 42 5 49 6
7 1 10 5 7 9 -2 5 -12 5 -21 2 -19 -7 -12 9 19 43 15 17 16 21 3 21 -8 0 -13
-2 -10 -5 2 -2 -2 -11 -10 -18 -7 -8 -15 -19 -18 -26 -2 -7 -8 -10 -12 -6 -4
4 1 20 11 36 17 30 13 69 -6 57 -5 -3 -10 -3 -11 2 0 4 -2 16 -4 26 -2 11 1
16 8 14 7 -3 11 -10 9 -17 -3 -11 0 -11 12 0 9 7 15 20 15 29 -1 13 -2 13 -6
-2 -2 -9 -8 -15 -13 -12 -5 3 -7 12 -3 20 6 18 -1 19 -29 4 -16 -9 -19 -8 -12
3 5 7 9 17 9 23 0 5 9 11 20 13 11 2 25 9 30 14 7 7 2 8 -15 3 l-25 -7 23 24
c12 13 22 28 22 34 0 5 -4 3 -8 -4 -7 -10 -15 -8 -36 9 -15 12 -25 24 -22 27
3 3 14 -2 24 -11 13 -12 21 -13 32 -6 13 9 12 10 -2 5 -20 -6 -34 10 -16 18
11 5 11 7 0 12 -15 7 -6 24 11 20 7 -1 9 -1 4 1 -4 3 -5 8 -2 13 3 4 -2 13
-10 20 -12 10 -15 10 -15 0 0 -17 -13 -4 -16 16 -1 9 3 13 9 11 7 -3 21 -8 32
-12 18 -6 18 -5 -1 7 -18 10 -19 15 -9 25 7 6 15 10 18 7 2 -3 4 5 3 18 0 13
4 23 11 23 6 0 14 3 18 7 13 13 -22 2 -47 -14 -25 -16 -38 -15 -38 4 0 5 4 7
8 4 4 -2 19 4 32 15 14 10 20 19 15 19 -6 0 -17 -6 -23 -12 -10 -10 -12 -7 -8
12 2 14 5 27 5 30 1 3 5 -1 10 -9 6 -9 11 -10 15 -2 6 10 -6 15 -26 12 -13 -2
-9 17 5 23 6 3 3 4 -7 3 -10 -1 -21 3 -23 10 -3 8 6 10 28 8 29 -4 30 -3 14 9
-13 9 -15 15 -7 20 7 4 12 2 12 -5 0 -7 3 -10 6 -6 3 3 3 11 -1 17 -5 8 -11 8
-21 -1 -10 -8 -14 -8 -14 0 0 6 9 16 19 23 15 9 17 16 10 25 -14 16 -19 62 -8
69 5 3 9 -3 9 -12 0 -10 3 -15 6 -11 4 3 4 14 0 23 -5 13 -9 14 -21 4 -18 -15
-20 1 -3 18 9 9 9 12 -1 12 -7 0 -9 5 -5 13 6 10 4 10 -7 0 -22 -21 -34 -15
-14 7 22 25 32 25 38 3 3 -13 5 -14 6 -3 0 8 -4 22 -9 30 -9 13 -11 13 -20 0
-7 -10 -10 -11 -10 -2 0 7 11 18 25 24 14 6 25 15 25 20 0 5 -10 2 -23 -7 -22
-14 -37 -12 -37 7 0 4 3 7 8 7 16 -3 32 1 30 9 0 4 2 15 7 25 4 10 2 23 -4 31
-8 10 -8 15 -1 18 21 7 20 50 -3 68 -12 10 -19 22 -14 26 4 4 14 -1 23 -12 14
-17 14 -16 0 9 -9 15 -12 27 -7 27 6 0 8 14 6 30 -2 17 1 30 6 30 5 0 9 5 9
11 0 8 -4 8 -14 0 -9 -7 -17 -8 -20 -3 -3 6 2 13 11 16 14 6 15 9 4 16 -8 4
-19 6 -26 4 -6 -3 -12 2 -12 10 0 11 7 14 24 10 13 -4 23 -2 23 5 0 6 -8 8
-17 5 -13 -4 -10 1 7 16 21 19 22 23 8 31 -23 13 -53 61 -36 58 25 -3 39 1 33
10 -3 5 -1 12 5 16 5 3 10 14 9 23 0 14 -2 14 -8 -2 -7 -18 -8 -18 -29 4 -12
13 -19 26 -16 29 3 3 12 -3 20 -13 8 -11 14 -15 14 -10 0 6 -5 15 -12 22 -9 9
-9 12 -1 12 7 0 15 -4 18 -10 3 -5 11 -10 18 -10 6 0 3 6 -7 13 -16 12 -16 14
4 42 l22 30 -27 -29 c-14 -15 -29 -26 -32 -23 -6 7 38 63 49 62 3 0 10 4 15 9
5 6 2 6 -6 1 -11 -6 -13 -4 -8 11 7 18 6 18 -6 2 -8 -10 -17 -15 -21 -11 -4 4
-4 -1 0 -12 7 -20 7 -20 -13 0 -11 11 -19 22 -17 24 2 2 -2 11 -9 19 -10 13
-9 15 6 9 10 -4 21 -7 23 -7 3 0 2 -4 -1 -10 -4 -6 1 -7 11 -3 14 5 14 7 -5
18 -12 6 -19 14 -15 18 4 4 13 2 21 -5 7 -6 16 -8 20 -4 3 3 1 6 -6 6 -7 0
-10 4 -6 9 3 6 -3 8 -14 6 -11 -2 -22 3 -25 10 -3 10 2 12 20 9 17 -3 23 -1
19 6 -4 6 -12 10 -18 9 -25 -3 -38 1 -32 11 4 6 10 8 14 5 5 -2 17 2 27 10 10
8 14 15 9 15 -6 0 -16 -5 -23 -12 -7 -7 -12 -8 -12 -2 0 6 5 15 12 22 9 9 9
12 -2 13 -8 1 -19 1 -23 0 -5 -1 -7 4 -4 11 5 14 9 14 42 3 12 -4 15 -3 9 2
-6 4 -10 20 -8 36 1 15 -2 27 -7 27 -6 0 -7 5 -4 10 4 6 11 8 16 5 5 -4 6 2 2
11 -4 11 -8 13 -11 6 -2 -7 -8 -12 -13 -12 -16 0 3 31 30 46 15 9 18 13 6 9
-38 -13 -55 -14 -55 -4 0 5 9 9 19 9 11 0 23 5 27 11 4 8 -1 9 -17 4 l-24 -7
23 24 c12 13 22 28 22 34 0 5 -4 3 -8 -4 -7 -10 -15 -8 -36 9 -15 12 -25 24
-22 27 3 3 14 -2 24 -11 13 -12 21 -13 32 -6 13 9 12 10 -2 5 -20 -6 -34 10
-16 18 11 5 11 7 0 12 -15 7 -6 24 11 20 7 -1 9 -1 4 1 -4 3 -5 8 -2 13 3 4
-2 13 -10 20 -12 10 -15 10 -15 0 0 -17 -13 -4 -16 16 -2 10 3 13 12 10 36
-15 48 -17 28 -4 -18 10 -19 15 -9 25 7 6 15 10 18 7 2 -3 4 5 3 18 0 13 4 23
11 23 6 0 14 3 18 7 13 13 -22 2 -47 -14 -25 -16 -38 -15 -38 4 0 5 4 7 8 4 4
-2 19 4 32 15 14 10 20 19 14 19 -5 0 -15 -5 -22 -12 -9 -9 -12 -9 -12 0 0 6
8 16 18 21 14 8 14 11 2 12 -8 1 -20 1 -26 0 -6 -1 -11 6 -11 14 0 10 7 13 24
9 13 -4 23 -2 23 5 0 6 -8 8 -17 5 -13 -4 -10 1 7 16 21 19 22 23 8 31 -8 5
-23 21 -33 35 -14 22 -15 26 -2 21 18 -7 56 18 44 29 -4 4 -7 2 -7 -4 0 -7 -4
-12 -9 -12 -4 0 -7 12 -5 28 2 16 -5 37 -17 52 -15 20 -18 21 -13 5 6 -16 5
-18 -7 -7 -7 6 -17 12 -23 12 -5 0 -2 -6 9 -13 12 -10 14 -16 7 -21 -7 -4 -12
-2 -12 5 0 8 -4 8 -12 1 -10 -8 -13 10 -12 84 l1 94 -480 0 c-264 0 -478 2
-476 5 12 12 218 39 389 51 162 12 474 6 559 -11 13 -2 47 -7 75 -9 28 -3 89
-13 136 -21 47 -9 99 -18 115 -21 17 -3 41 -9 55 -14 14 -5 36 -11 50 -14 107
-18 356 -99 520 -168 287 -121 597 -315 805 -503 22 -19 52 -44 66 -55 25 -18
27 -18 45 -2 25 22 134 114 159 135 42 34 250 210 255 216 3 3 65 57 138 120
72 62 132 117 132 121 0 22 -223 210 -375 317 -148 104 -256 170 -440 268 -49
26 -95 51 -100 56 -20 15 -309 135 -425 177 -239 85 -568 176 -718 198 -20 3
-44 7 -52 9 -8 2 -37 7 -65 10 -27 4 -60 8 -72 10 -12 2 -60 7 -105 10 -46 4
-101 9 -123 11 -46 6 -731 14 -737 10z m-374 -1048 c-9 -538 -16 -908 -19
-993 -2 -55 -6 -192 -10 -305 l-6 -205 -63 -130 c-145 -297 -314 -517 -561
-731 -317 -275 -785 -515 -1235 -632 -127 -34 -117 -35 -138 12 -49 103 -87
247 -108 406 -12 98 -12 545 1 640 19 136 22 152 60 280 171 590 529 1033
1140 1410 95 59 298 163 401 206 133 55 138 57 149 60 6 1 53 17 105 34 78 27
258 78 281 80 3 0 4 -60 3 -132z m1112 -73 c0 -19 -3 -32 -8 -29 -4 3 -13 2
-19 -1 -6 -4 0 -20 17 -42 l27 -36 -24 -21 c-14 -12 -24 -27 -23 -33 1 -7 2
-18 3 -24 1 -8 7 -7 19 2 15 13 16 12 4 -3 -8 -9 -10 -23 -6 -29 4 -7 3 -9 -4
-5 -6 3 -14 1 -18 -5 -4 -8 -9 -7 -15 2 -5 9 -9 9 -9 3 0 -20 46 -44 58 -32 7
7 14 9 17 6 4 -3 -8 -16 -25 -28 -16 -12 -28 -26 -25 -31 4 -5 1 -9 -5 -9 -7
0 -10 7 -7 14 4 10 1 13 -7 10 -8 -3 -17 -1 -21 5 -3 6 -1 11 4 11 6 0 11 5
11 11 0 5 -6 7 -12 3 -10 -5 -10 -4 -1 6 9 10 10 17 2 27 -7 8 -7 13 -2 13 6
0 9 26 6 65 -2 36 0 65 5 65 4 0 7 -20 7 -45 -1 -24 2 -50 6 -57 5 -7 7 3 5
24 -3 25 0 36 7 31 6 -3 7 -1 3 5 -4 8 -2 10 7 6 8 -3 18 -1 22 5 3 7 0 8 -9
5 -9 -3 -16 -1 -16 5 0 6 5 11 11 11 5 0 7 5 3 11 -5 8 -9 8 -14 -1 -5 -9 -9
-9 -14 -1 -4 6 -2 11 3 11 6 0 11 4 11 8 0 5 -7 9 -15 9 -8 0 -12 -4 -9 -9 3
-4 0 -8 -5 -8 -6 0 -11 7 -11 16 0 10 6 14 14 11 9 -4 13 2 12 16 -1 15 4 21
16 19 11 -2 16 4 15 17 0 11 -5 17 -9 15 -5 -3 -6 -10 -3 -15 3 -5 -1 -6 -9
-3 -14 6 -21 -5 -17 -28 0 -5 -3 -8 -9 -8 -22 0 -3 53 20 58 8 2 17 8 19 13 6
19 16 -2 17 -36z m-6630 10 c13 -14 21 -26 19 -26 -3 -1 -8 -2 -12 -3 -5 -1
-17 -7 -28 -13 l-20 -12 20 -8 c22 -9 32 -33 13 -33 -9 0 -9 -3 0 -12 9 -9 8
-16 -4 -29 -17 -19 -10 -44 8 -33 7 4 8 2 4 -5 -4 -6 -12 -8 -18 -5 -7 4 -8 2
-4 -4 4 -6 13 -9 21 -5 8 3 15 0 15 -7 0 -7 -8 -10 -18 -8 -11 3 -19 0 -19 -7
0 -8 7 -11 16 -7 13 5 14 3 4 -10 -7 -8 -12 -17 -10 -19 1 -2 -5 4 -14 15 -9
10 -21 16 -28 12 -6 -4 -11 -2 -11 3 0 6 7 11 16 11 8 0 12 5 9 10 -4 6 -10 8
-15 5 -4 -3 -7 3 -5 12 1 10 8 17 14 16 17 -4 13 14 -5 21 -12 5 -13 10 -6 19
7 8 7 18 2 27 -14 22 -12 30 6 30 8 0 12 5 9 10 -4 6 -9 8 -13 6 -4 -2 -7 10
-7 27 0 27 11 42 34 46 2 1 14 -10 27 -24z m6634 -347 c13 4 12 2 -1 -14 -9
-10 -14 -26 -12 -34 2 -8 -2 -4 -10 9 -9 15 -17 20 -21 12 -4 -6 -2 -11 5 -11
8 0 8 -4 1 -12 -7 -10 -4 -20 13 -40 13 -15 27 -24 31 -20 5 4 2 -1 -5 -10
-18 -24 -31 -23 -26 1 3 14 -1 18 -12 14 -11 -4 -11 -8 -3 -13 9 -5 9 -9 1
-14 -6 -4 -11 -2 -11 4 0 6 -5 8 -11 4 -7 -4 -7 -9 -2 -13 5 -3 9 -18 8 -33
-1 -19 2 -25 12 -21 8 3 11 9 6 12 -13 10 -15 33 -2 25 8 -5 9 -3 4 7 -5 8 -4
11 1 6 5 -5 9 -16 9 -25 0 -9 6 -16 13 -14 10 2 10 -2 3 -16 -7 -14 -6 -25 5
-40 10 -15 11 -22 3 -22 -8 0 -8 -4 1 -15 9 -10 9 -15 1 -15 -11 0 -14 11 -12
40 0 11 -1 11 -5 2 -5 -10 -9 -9 -18 4 -10 13 -15 14 -21 4 -5 -8 -4 -11 2 -7
6 4 15 -4 21 -17 9 -21 7 -27 -11 -41 -12 -9 -17 -13 -10 -10 6 3 14 1 18 -5
4 -6 11 -8 16 -5 5 4 9 1 9 -4 0 -6 -4 -11 -10 -11 -5 0 -9 -3 -9 -7 1 -5 0
-10 -1 -13 -7 -20 -7 -40 1 -40 6 0 7 -4 4 -10 -3 -5 -1 -10 6 -10 7 0 5 -6
-6 -13 -13 -10 -15 -16 -6 -21 6 -4 9 -11 6 -15 -2 -5 4 -17 13 -27 18 -18 18
-20 0 -38 -12 -13 -14 -22 -7 -27 7 -4 4 -9 -7 -13 -22 -9 -30 0 -15 18 8 10
9 16 1 21 -6 3 -7 12 -3 18 12 19 12 37 1 37 -6 0 -7 -8 -3 -17 4 -13 3 -15
-5 -7 -16 16 -30 73 -19 79 14 9 11 27 -3 19 -10 -5 -10 -4 -1 6 9 10 10 17 2
27 -7 7 -7 13 -2 13 5 0 8 26 7 57 -1 32 2 64 8 70 8 10 6 13 -8 13 -14 0 -16
2 -6 9 8 4 13 11 12 14 -1 4 -5 20 -10 37 -5 18 -5 32 1 36 6 3 5 12 -3 22
-10 13 -10 14 0 8 9 -6 11 -1 8 18 -3 14 -8 31 -12 37 -4 7 -3 9 4 5 6 -3 13
-2 17 4 3 5 2 10 -2 10 -5 0 -10 12 -11 26 l-2 25 28 -19 c15 -11 34 -17 42
-14z m-6627 -27 c2 -12 9 -26 15 -30 9 -5 7 -12 -7 -25 -11 -10 -17 -24 -14
-32 6 -17 -13 -19 -23 -2 -5 7 -3 8 7 3 11 -7 12 -6 2 7 -7 8 -11 18 -8 22 3
3 -1 2 -7 -4 -7 -5 -16 -10 -20 -10 -12 0 -6 33 7 42 6 5 5 8 -3 8 -7 0 0 11
15 24 32 28 31 28 36 -3z m-38 -81 c-3 -5 10 -19 29 -31 l35 -21 -27 -23 c-23
-20 -29 -22 -38 -10 -6 8 -13 13 -15 10 -3 -2 -5 4 -5 15 0 10 4 16 8 14 4 -3
8 -1 8 4 0 6 -8 13 -17 17 -17 6 -17 7 1 21 23 17 30 18 21 4z m30 -128 c-3
-3 -11 0 -18 7 -9 10 -8 11 6 5 10 -3 15 -9 12 -12z m18 -70 c-10 -7 -17 -18
-15 -23 1 -5 -2 -9 -8 -9 -8 0 -8 28 0 50 2 3 2 8 1 13 -1 4 8 2 19 -5 19 -12
19 -14 3 -26z m7 -104 c0 -11 -12 -10 -30 2 -12 7 -10 9 8 7 12 0 22 -5 22 -9z
m-16 -88 c-6 -6 -10 -3 -10 10 0 13 4 16 10 10 7 -7 7 -13 0 -20z m6571 -19
c-3 -5 -1 -13 5 -16 8 -5 8 -11 0 -20 -11 -14 -1 -48 13 -46 16 2 44 -37 36
-50 -7 -12 -9 -12 -9 0 0 11 -3 11 -15 1 -13 -11 -12 -17 12 -48 l26 -35 -23
-19 c-14 -11 -25 -31 -26 -44 -1 -27 5 -30 26 -11 12 10 12 9 2 -4 -10 -13 -9
-19 3 -29 13 -11 13 -15 3 -22 -10 -6 -10 -10 -1 -16 8 -5 7 -14 -7 -32 -18
-23 -17 -24 7 -43 13 -11 22 -22 18 -25 -3 -3 -12 3 -20 14 -15 19 -15 19 -8
-1 6 -17 5 -18 -9 -7 -9 7 -15 22 -13 33 2 10 -1 19 -7 19 -5 0 -7 -7 -4 -16
4 -10 2 -13 -7 -8 -9 5 -9 4 0 -6 10 -11 10 -17 0 -29 -10 -12 -9 -13 3 -6 12
6 13 5 3 -6 -10 -10 -16 -10 -25 -1 -7 7 -8 12 -2 12 8 0 11 49 5 68 -3 7 5
17 12 15 4 -2 7 2 7 8 0 5 5 7 11 3 8 -5 8 -9 -1 -14 -8 -5 -7 -9 5 -13 9 -4
13 -3 10 2 -3 5 -1 12 3 15 13 8 6 51 -7 48 -7 -1 -10 2 -6 8 3 5 4 10 1 10
-3 0 -10 -9 -16 -20 -9 -16 -8 -18 5 -14 8 4 15 2 15 -3 0 -12 -38 -14 -45 -2
-4 5 -1 9 4 9 6 0 11 5 11 11 0 5 -6 7 -12 3 -10 -5 -10 -4 -2 5 6 6 9 37 7
71 -2 33 0 60 5 60 4 0 7 -20 7 -45 -1 -25 2 -48 5 -50 4 -3 6 9 5 25 -2 18 1
27 8 23 6 -3 7 -1 3 5 -4 8 -2 10 7 6 8 -3 18 -1 22 5 3 7 0 8 -9 5 -9 -3 -16
-1 -16 5 0 6 5 11 11 11 5 0 7 5 3 11 -5 8 -9 8 -14 -1 -5 -9 -9 -9 -14 -1 -4
6 -2 11 3 11 6 0 11 4 11 8 0 5 -7 9 -15 9 -8 0 -12 -4 -9 -9 3 -4 0 -8 -5 -8
-6 0 -11 7 -11 16 0 9 6 14 13 11 8 -3 14 1 14 8 0 7 -6 11 -12 8 -9 -3 -12
12 -12 51 0 31 4 56 9 56 5 0 6 5 3 10 -4 6 -11 8 -16 5 -5 -3 -6 1 -3 9 3 9
10 16 16 16 5 0 7 -4 3 -9z m-6546 -56 c18 0 23 -32 7 -38 -7 -3 -21 9 -31 25
-12 21 -14 28 -4 22 8 -5 20 -9 28 -9z m-15 -124 c11 -20 12 -31 4 -39 -6 -6
-7 -16 -2 -24 5 -7 9 -22 9 -33 0 -11 4 -27 9 -35 9 -13 7 -13 -7 -2 -9 8 -16
17 -15 20 0 4 -1 12 -2 17 -1 6 -3 26 -4 45 -1 24 -6 34 -15 32 -12 -3 -12 0
-2 12 7 8 10 20 6 26 -3 5 -4 10 -1 10 3 0 12 -13 20 -29z m31 -193 c3 -3 -3
-8 -13 -10 -11 -3 -19 0 -19 7 0 13 21 14 32 3z m-10 -56 c-6 -7 -34 11 -29
19 3 5 11 3 19 -4 7 -6 12 -13 10 -15z m6570 -42 c-3 -4 2 -10 10 -13 9 -4 12
-1 8 9 -4 10 0 12 11 8 14 -5 14 -8 -2 -29 -15 -21 -40 -25 -27 -5 3 5 0 12
-6 16 -8 4 -9 3 -5 -4 4 -7 1 -12 -6 -12 -9 0 -9 -3 2 -10 12 -7 12 -10 1 -10
-8 0 -11 -6 -7 -16 3 -8 2 -13 -2 -10 -15 9 -10 -28 6 -47 20 -23 22 -54 5
-68 -10 -9 -11 -15 -2 -26 10 -11 14 -12 22 -1 6 9 7 7 3 -6 -4 -10 -1 -25 5
-33 7 -7 9 -16 6 -20 -4 -3 -2 -14 4 -25 9 -16 6 -25 -12 -44 -12 -13 -17 -24
-11 -24 7 0 12 -5 12 -11 0 -5 -4 -8 -9 -5 -5 3 -14 0 -20 -8 -9 -10 -8 -15 4
-19 9 -4 12 -13 8 -23 -4 -10 -2 -15 3 -11 6 3 10 -7 9 -23 0 -15 -3 -26 -7
-24 -4 2 -10 -1 -14 -7 -4 -8 -9 -7 -15 2 -5 9 -9 9 -9 3 0 -20 46 -44 58 -32
7 7 14 9 17 6 4 -3 -8 -16 -25 -28 -16 -12 -28 -26 -25 -31 10 -16 -5 -10 -27
11 -12 11 -16 20 -10 20 7 0 12 5 12 11 0 5 -6 7 -12 3 -10 -5 -10 -4 -1 6 9
10 10 17 2 27 -9 9 -8 13 0 13 7 0 10 4 7 9 -8 12 19 33 29 23 5 -4 5 -2 1 5
-4 7 -14 9 -24 6 -9 -3 -14 -3 -10 2 4 4 3 17 -3 28 -7 13 -7 17 -1 13 6 -3
13 -2 17 4 3 5 1 10 -6 10 -7 0 -10 3 -7 6 4 3 2 19 -2 35 -5 17 -5 31 1 34 5
4 9 11 9 16 0 6 -6 7 -12 3 -10 -6 -10 -4 -2 7 11 16 12 58 1 76 -4 6 -3 14 2
18 7 3 7 15 1 30 -7 19 -6 23 5 19 8 -3 14 -9 13 -12 -2 -21 3 -32 13 -26 8 4
7 9 -2 15 -8 5 -10 9 -5 9 5 0 2 7 -5 17 -8 9 -15 35 -15 57 -1 23 -2 42 -3
44 -3 6 -1 12 4 10 8 -5 33 37 28 46 -4 5 -1 6 6 2 6 -4 9 -11 6 -16z m35 -63
c0 -7 -7 -20 -14 -29 -12 -16 -14 -16 -24 6 -12 28 -11 31 18 33 11 1 20 -4
20 -10z m-6600 -37 c0 -5 -5 -10 -11 -10 -5 0 -7 5 -4 10 3 6 8 10 11 10 2 0
4 -4 4 -10z m6560 0 c0 -5 -4 -10 -10 -10 -5 0 -10 5 -10 10 0 6 5 10 10 10 6
0 10 -4 10 -10z m5 -510 c3 -5 13 -6 23 -3 16 6 16 5 1 -13 -9 -10 -14 -26
-12 -34 4 -13 3 -13 -6 0 -5 9 -11 22 -13 30 -2 8 -7 18 -13 22 -6 5 -6 8 2 8
6 0 14 -4 18 -10z m27 -117 c2 1 -5 -6 -15 -15 -11 -10 -16 -18 -12 -18 4 0 2
-6 -4 -13 -6 -8 -7 -18 -3 -22 4 -5 2 -5 -5 -2 -13 8 -12 25 2 47 12 18 13 31
6 45 -3 6 1 3 10 -7 9 -9 18 -16 21 -15z m-9 -157 c23 3 22 -24 -3 -56 -11
-14 -20 -32 -20 -40 0 -13 -2 -13 -9 -1 -7 10 -4 19 7 28 16 12 16 13 0 7 -18
-6 -24 6 -11 20 11 11 12 36 2 36 -6 0 -7 5 -3 11 4 7 9 7 13 1 3 -5 14 -8 24
-6z m12 -104 c-3 -3 -11 0 -18 7 -9 10 -8 11 6 5 10 -3 15 -9 12 -12z m-29
-51 c-9 -10 -13 -21 -9 -24 3 -4 0 -7 -7 -7 -9 0 -7 -5 5 -14 17 -12 31 -61
14 -50 -4 2 -11 -1 -15 -7 -4 -8 -9 -7 -15 2 -5 9 -9 9 -9 3 0 -20 46 -44 58
-32 7 7 14 9 17 6 4 -3 -8 -16 -25 -28 -16 -12 -28 -26 -25 -31 10 -16 -5 -10
-27 11 -12 11 -16 20 -10 20 7 0 12 5 12 11 0 5 -6 7 -12 3 -10 -6 -10 -5 -1
7 10 12 10 18 1 27 -7 7 -8 12 -2 12 14 0 14 31 1 48 -9 11 -5 16 9 10 5 -3
27 29 30 45 1 4 2 10 3 13 0 3 6 2 12 -1 7 -5 5 -13 -5 -24z m-1 -211 c3 -5
13 -6 23 -3 16 6 16 5 1 -13 -9 -10 -14 -26 -12 -34 4 -13 3 -13 -6 0 -5 9
-11 22 -13 30 -2 8 -7 18 -13 22 -6 5 -6 8 2 8 6 0 14 -4 18 -10z m27 -117 c2
1 -5 -6 -15 -15 -11 -10 -16 -18 -12 -18 4 0 2 -6 -4 -13 -6 -8 -7 -18 -3 -22
4 -5 2 -5 -5 -2 -13 8 -12 25 2 47 12 18 13 31 6 45 -3 6 1 3 10 -7 9 -9 18
-16 21 -15z m-9 -157 c23 3 22 -24 -3 -56 -11 -14 -20 -32 -20 -40 0 -13 -2
-13 -9 -1 -7 10 -4 19 7 28 16 12 16 13 0 7 -18 -6 -24 6 -11 20 11 11 12 36
2 36 -6 0 -7 5 -3 11 4 7 9 7 13 1 3 -5 14 -8 24 -6z m-1125 -107 c-7 -5 -9
-9 -5 -9 4 0 3 -10 -4 -22 -9 -17 -9 -20 3 -15 11 4 14 -1 10 -19 -2 -13 -9
-24 -14 -24 -5 0 -6 -5 -3 -10 4 -6 9 -8 13 -6 4 2 8 -152 10 -342 8 -860 8
-1133 1 -1138 -18 -11 -300 73 -459 136 -345 138 -672 339 -929 573 -34 31
-40 42 -30 49 11 8 11 9 -1 5 -20 -6 -50 10 -50 28 0 7 -9 17 -20 20 -11 4
-18 10 -15 15 3 4 -2 13 -10 20 -8 7 -15 9 -15 5 0 -4 -7 -2 -15 5 -15 13 -12
30 7 30 5 0 8 -7 5 -14 -4 -10 -1 -13 8 -9 8 3 13 9 10 13 -7 11 8 20 41 26
15 3 32 6 38 7 6 1 13 5 16 9 3 4 11 -2 19 -13 9 -16 9 -19 0 -14 -8 6 -10 4
-4 -5 6 -9 4 -11 -4 -5 -8 4 -6 -5 4 -21 17 -28 16 -28 -9 3 -15 18 -33 30
-44 28 -9 -2 -19 -4 -21 -4 -2 -1 2 -8 9 -16 11 -13 10 -14 -5 -8 -15 5 -17 3
-12 -11 5 -11 3 -15 -5 -10 -24 15 4 -16 34 -38 17 -12 28 -16 23 -8 -6 10 -4
12 8 7 10 -4 14 -2 11 6 -2 7 4 13 16 14 12 1 18 -2 14 -9 -4 -7 -2 -8 4 -4 9
5 9 13 1 28 -15 28 12 58 35 38 9 -7 16 -17 16 -22 0 -6 -6 -5 -15 2 -21 17
-38 4 -25 -21 6 -11 8 -25 5 -32 -4 -6 3 0 15 16 12 15 26 27 32 27 7 0 6 -5
-1 -14 -9 -10 -8 -15 3 -19 11 -4 13 -1 9 11 -3 9 -3 14 2 10 4 -4 13 -2 20 5
14 15 16 47 2 47 -6 0 -8 2 -5 5 3 3 12 3 21 -1 11 -4 14 -15 12 -37 l-4 -32
15 27 c9 17 20 25 29 22 8 -4 12 -11 8 -18 -3 -6 0 -5 8 3 11 10 11 15 1 18
-6 3 -10 9 -7 14 4 5 0 6 -7 4 -9 -4 -14 3 -15 16 -2 16 1 19 9 11 9 -9 15 -8
27 1 12 10 14 9 8 -6 -12 -32 4 -40 23 -12 13 20 19 23 23 12 3 -9 -1 -18 -9
-21 -8 -3 -13 -13 -13 -23 1 -17 2 -17 6 0 5 18 15 22 26 10 4 -3 2 -11 -3
-18 -7 -8 -5 -12 4 -12 15 0 16 14 2 36 -7 11 -5 13 10 7 10 -4 15 -4 11 0 -7
8 10 34 23 34 5 0 11 -8 13 -17 4 -16 5 -16 6 -1 0 9 -4 20 -9 23 -12 8 6 35
22 35 7 0 7 -5 0 -13 -12 -15 2 -46 15 -33 4 5 3 11 -4 13 -10 4 -10 7 0 18
16 17 28 9 21 -13 -4 -11 -3 -13 3 -5 12 16 49 21 46 6 -2 -7 2 -13 8 -13 6 0
8 7 5 15 -4 10 3 20 19 27 14 6 26 15 26 20 1 4 3 13 4 18 1 6 3 13 4 17 0 3
11 -5 23 -18 16 -18 19 -19 15 -6 -6 15 -3 17 13 12 18 -6 25 3 21 28 0 4 3 7
7 7 19 0 21 -15 7 -36 -11 -17 -12 -25 -3 -30 6 -4 8 -3 4 4 -3 6 7 24 23 40
l30 29 -25 -3 c-16 -1 -24 2 -21 9 3 7 10 11 17 9 7 -2 16 2 20 9 5 8 10 4 15
-10 5 -17 10 -20 20 -11 10 8 19 8 35 0 12 -6 24 -9 28 -6 3 3 0 6 -6 6 -6 0
-18 8 -28 17 -13 13 -19 14 -22 5 -4 -14 -22 -17 -22 -3 0 18 34 21 58 5 l25
-16 -17 23 c-22 32 -20 49 3 22 l18 -22 12 26 c9 20 14 23 25 14 10 -9 15 -8
19 4 4 8 13 12 21 9 8 -3 17 -1 21 5 4 7 0 8 -11 4 -24 -9 -9 14 18 28 18 10
20 9 14 -7 -7 -19 8 -34 34 -33 8 0 4 5 -10 11 -23 10 -23 11 -5 16 11 2 30
13 42 24 14 13 26 17 35 12 30 -19 40 -13 23 13 -9 13 -15 26 -13 28 5 6 39
-23 38 -31 -1 -5 4 -10 12 -12 9 -2 8 0 -2 7 -8 6 -11 11 -6 11 5 0 3 6 -3 14
-9 10 -7 17 6 27 15 12 16 12 11 -2 -3 -9 -2 -22 3 -30 8 -12 10 -12 8 1 -3
29 1 40 16 40 8 0 15 5 15 11 0 5 -4 8 -9 4 -5 -3 -12 -1 -15 3 -3 5 7 9 22 8
17 -1 29 -8 34 -21 6 -17 7 -17 6 5 -1 42 2 51 12 45 5 -3 7 -11 4 -19 -3 -7
1 -13 9 -13 9 0 12 7 9 19 -4 17 -15 23 -35 19 -5 -1 -7 4 -4 11 2 7 11 11 18
9 8 -2 25 -5 39 -6 14 -2 25 -4 25 -5 0 -2 10 -4 22 -5 13 -1 20 2 17 10 -3 7
6 22 20 32 14 11 22 23 19 27 -3 3 -1 6 5 6 7 0 12 -4 12 -10 0 -5 5 -10 11
-10 8 0 8 5 -1 15 -15 18 0 20 20 3 11 -10 11 -9 0 6 -14 17 -13 18 8 12 14
-5 22 -3 22 4 0 6 -4 9 -9 6 -5 -3 -12 1 -15 10 -3 9 -2 12 5 9 5 -4 17 -1 26
7 15 11 16 11 10 -6 -7 -17 -6 -17 10 -5 15 12 16 12 10 -4 -4 -10 -3 -16 2
-12 14 8 9 44 -5 38 -7 -3 -11 3 -10 13 2 10 8 20 14 22 7 2 12 9 12 15 0 5
-3 7 -7 4 -3 -4 -13 -1 -21 6 -13 10 -14 9 -7 -2 5 -9 4 -12 -3 -7 -6 3 -13 2
-17 -4 -4 -6 -11 -7 -17 -4 -6 4 -8 2 -4 -4 8 -14 -18 -9 -38 7 -15 13 -19 11
-13 -6 1 -5 6 -7 10 -5 5 1 5 -3 1 -9 -4 -7 -3 -9 4 -5 6 3 13 2 17 -4 4 -6
11 -8 16 -5 5 4 9 1 9 -5 0 -7 -7 -9 -16 -6 -8 3 -13 2 -10 -2 3 -5 -1 -9 -9
-9 -8 0 -11 5 -8 11 4 6 -1 5 -10 -3 -10 -8 -20 -11 -24 -7 -3 3 -1 6 6 6 7 0
9 5 6 11 -5 6 -12 4 -22 -8 -8 -10 -11 -11 -7 -3 4 8 4 12 -1 8 -4 -4 -15 -2
-24 4 -13 10 -14 10 -4 -1 9 -11 8 -19 -5 -39 -14 -21 -14 -24 -2 -17 13 8 13
7 0 -10 -13 -17 -13 -18 0 -10 13 7 13 6 2 -7 -7 -8 -10 -22 -7 -30 4 -9 0
-15 -10 -15 -16 0 -17 27 -1 38 4 4 3 10 -3 13 -6 4 -11 1 -11 -6 0 -10 -3 -9
-11 2 -9 13 -10 12 -5 -3 4 -12 2 -16 -7 -11 -9 5 -9 4 1 -7 6 -7 12 -17 12
-22 0 -5 -9 2 -20 16 -11 14 -20 29 -20 34 0 4 5 1 10 -7 5 -8 10 -10 10 -4 0
24 -24 33 -50 18 -25 -15 -25 -15 -1 -8 17 4 22 3 19 -7 -3 -8 -14 -13 -24
-11 -16 2 -15 -1 6 -18 14 -12 19 -18 11 -14 -10 5 -12 3 -7 -7 4 -8 0 -5 -8
5 -9 11 -16 14 -16 7 0 -7 -5 -9 -11 -5 -8 5 -8 9 1 14 7 4 8 10 3 13 -5 3
-15 -3 -22 -15 -9 -15 -10 -18 0 -13 8 6 10 4 4 -5 -5 -8 -4 -11 1 -7 6 3 11
-4 11 -15 2 -20 1 -20 -13 -2 -9 11 -12 12 -8 4 7 -13 6 -13 -11 0 -10 8 -16
10 -12 3 5 -8 1 -11 -13 -8 -11 2 -19 -1 -17 -8 1 -7 -4 -11 -12 -9 -12 3 -12
1 0 -15 13 -16 12 -17 -3 -4 -10 7 -16 16 -14 20 3 4 -4 7 -15 7 -20 0 -19 -1
24 -33 16 -13 23 -24 17 -28 -5 -3 -10 -1 -10 5 0 6 -4 8 -10 5 -6 -4 -2 -15
10 -27 25 -28 26 -42 1 -26 -11 7 -18 15 -15 19 11 18 -19 19 -39 2 -15 -12
-19 -13 -12 -3 6 9 1 7 -9 -5 -13 -14 -18 -15 -14 -4 4 10 0 16 -10 16 -25 0
-42 -16 -35 -35 3 -9 -4 -5 -16 10 -13 16 -28 25 -36 21 -8 -3 -15 0 -15 6 0
6 6 11 13 11 8 0 22 9 32 20 10 11 21 17 25 15 4 -3 13 2 20 10 7 8 16 12 21
9 5 -3 9 0 9 7 0 7 3 9 7 6 3 -4 21 5 40 19 18 14 33 21 33 17 0 -4 5 -1 10 7
9 13 10 13 10 0 1 -9 6 -5 15 10 8 14 15 21 15 15 0 -5 5 -3 10 5 5 8 13 15
17 15 4 1 28 14 53 30 25 16 51 30 59 31 7 2 22 12 33 24 15 16 23 19 31 11
18 -18 31 -13 16 6 -8 9 -9 14 -3 10 7 -4 15 0 18 9 3 8 14 14 23 12 10 -2 17
2 16 9 -2 7 6 10 18 8 15 -3 19 0 15 11 -3 8 -1 12 4 9 5 -3 22 5 37 19 21 19
30 23 40 14 11 -9 12 -13 1 -19z m1137 3 c-3 -3 -11 0 -18 7 -9 10 -8 11 6 5
10 -3 15 -9 12 -12z m-29 -51 c-9 -10 -13 -21 -9 -24 3 -4 0 -7 -7 -7 -9 0 -7
-5 5 -14 11 -8 25 -12 31 -9 25 9 25 -19 0 -44 -18 -17 -23 -29 -15 -33 7 -5
5 -9 -7 -14 -22 -9 -30 0 -15 18 8 10 9 16 1 21 -6 3 -7 12 -3 18 12 19 12 37
1 37 -6 0 -7 -8 -4 -17 4 -11 -1 -8 -13 7 -18 23 -19 46 -1 35 8 -5 21 18 29
51 0 3 6 2 12 -1 7 -5 5 -13 -5 -24z m-1147 -38 c-6 -7 -8 -13 -4 -13 4 0 2
-7 -5 -15 -17 -20 -27 -19 -25 3 2 25 12 39 29 39 12 0 13 -4 5 -14z m-53 -56
c3 -3 -8 -12 -24 -21 -16 -8 -32 -22 -35 -31 -4 -8 -12 -15 -18 -15 -8 0 -7 5
2 16 22 27 19 43 -7 38 -22 -4 -32 5 -19 17 6 7 94 4 101 -4z m1169 4 c-3 -5
-1 -13 5 -16 8 -5 8 -11 0 -20 -11 -14 -1 -48 13 -46 16 2 44 -37 36 -50 -7
-12 -9 -12 -9 0 0 11 -3 11 -15 1 -13 -11 -12 -17 12 -48 l26 -35 -24 -21
c-14 -12 -24 -27 -23 -33 1 -7 2 -18 3 -24 1 -8 7 -7 19 2 15 13 16 12 4 -3
-8 -9 -10 -23 -6 -29 4 -7 3 -9 -4 -5 -6 3 -14 1 -18 -5 -4 -8 -9 -7 -15 2 -5
9 -9 9 -9 3 0 -20 46 -44 58 -32 7 7 14 9 17 6 4 -3 -8 -16 -25 -28 -16 -12
-28 -26 -25 -31 4 -5 1 -9 -5 -9 -7 0 -10 7 -7 14 4 10 1 13 -7 10 -8 -3 -17
-1 -21 5 -3 6 -1 11 4 11 6 0 11 5 11 11 0 5 -6 7 -12 3 -10 -5 -10 -4 -1 6 9
10 10 17 2 27 -7 8 -7 13 -2 13 6 0 9 26 6 65 -2 36 0 65 5 65 4 0 7 -20 7
-45 -1 -24 2 -50 6 -57 5 -7 7 3 5 24 -3 25 0 36 7 31 6 -3 7 -1 3 5 -4 8 -2
10 7 6 8 -3 18 -1 22 5 3 7 0 8 -9 5 -9 -3 -16 -1 -16 5 0 6 5 11 11 11 5 0 7
5 3 11 -5 8 -9 8 -14 -1 -5 -9 -9 -9 -14 -1 -4 6 -2 11 3 11 6 0 11 4 11 8 0
5 -7 9 -15 9 -8 0 -12 -4 -9 -9 3 -4 0 -8 -5 -8 -6 0 -11 7 -11 16 0 9 6 14
13 11 8 -3 14 1 14 8 0 7 -6 11 -12 8 -9 -3 -12 12 -12 51 0 31 4 56 9 56 5 0
6 5 3 10 -4 6 -11 8 -16 5 -5 -3 -6 1 -3 9 3 9 10 16 16 16 5 0 7 -4 3 -9z
m-1247 -48 c-7 -9 -13 -21 -14 -27 -3 -31 -5 -36 -13 -36 -4 0 -6 12 -4 28 2
15 5 32 5 39 1 7 5 10 10 7 4 -3 8 0 8 6 0 6 5 8 10 5 8 -5 7 -12 -2 -22z
m-109 -27 c11 -14 6 -15 -27 -7 -4 1 8 21 12 21 2 0 9 -6 15 -14z m-26 -49 c4
3 7 1 7 -5 0 -6 -4 -14 -10 -17 -5 -3 -10 -1 -10 6 0 8 -4 9 -13 0 -11 -8 -13
-6 -11 12 4 33 4 33 18 15 7 -10 16 -15 19 -11z m-63 -16 c3 -1 6 -11 7 -23 0
-13 -1 -17 -4 -10 -4 10 -9 8 -20 -7 -13 -19 -40 -31 -29 -13 2 4 1 14 -4 22
-11 18 5 39 28 35 9 -2 19 -4 22 -4z m-252 -87 c6 3 15 -1 22 -9 7 -8 9 -15 4
-15 -5 0 -2 -4 6 -9 18 -12 33 -3 26 15 -8 20 15 29 26 10 9 -15 12 -15 42 3
28 18 33 18 33 5 0 -24 -44 -49 -61 -35 -11 10 -22 5 -50 -19 -19 -17 -40 -29
-45 -26 -5 4 -16 -3 -24 -14 -12 -18 -16 -19 -27 -5 -14 17 -34 10 -27 -10 4
-8 -3 -11 -19 -9 -13 1 -24 -2 -24 -7 0 -6 -4 -8 -9 -4 -5 3 -12 1 -16 -5 -4
-6 -11 -8 -16 -4 -10 6 -44 -32 -44 -48 0 -3 -4 -10 -9 -15 -5 -4 -7 1 -4 14
4 15 2 20 -8 16 -8 -3 -12 -9 -9 -13 3 -5 1 -11 -4 -14 -5 -4 -12 -2 -16 4 -4
6 -15 4 -30 -6 -23 -15 -24 -15 -20 5 2 14 0 19 -7 15 -7 -4 -8 -2 -4 5 4 6
12 8 18 5 7 -4 8 -2 4 4 -4 7 -2 12 4 12 6 0 8 5 4 11 -4 8 -9 7 -15 -2 -7
-12 -9 -12 -9 0 0 8 -16 -7 -36 -33 -19 -25 -39 -44 -45 -41 -5 4 -9 2 -9 -2
0 -15 38 -34 46 -22 4 8 9 7 14 -1 5 -9 9 -9 14 -1 4 6 3 11 -2 11 -5 0 -9 7
-9 15 0 20 14 19 26 -2 6 -10 11 -12 11 -5 0 6 6 12 13 12 6 -1 0 -11 -15 -23
-30 -24 -73 -33 -83 -17 -4 6 -10 8 -15 5 -5 -3 -11 -1 -15 5 -3 5 -11 10 -17
10 -6 0 -9 -3 -5 -6 7 -7 -41 -74 -53 -74 -4 0 -11 10 -14 23 -6 22 -7 22 -22
-5 -8 -16 -17 -28 -20 -28 -3 0 -2 5 1 10 10 17 -5 32 -20 20 -9 -8 -15 -8
-20 0 -11 18 -25 0 -21 -25 3 -14 1 -27 -4 -30 -5 -3 -7 3 -5 14 3 16 -1 19
-23 16 -15 -1 -28 -3 -30 -4 -1 0 2 -10 8 -20 17 -33 -9 -36 -41 -5 -28 27
-29 27 -51 8 -13 -10 -17 -12 -11 -4 10 10 10 17 1 28 -14 17 6 34 30 24 9 -3
13 -1 9 5 -4 6 1 10 11 10 41 0 53 4 46 14 -4 7 1 7 16 -1 20 -11 22 -10 17 4
-6 14 -2 16 24 12 23 -3 29 -1 25 9 -3 9 3 12 19 10 14 -1 26 4 30 13 3 8 8
12 12 9 3 -4 12 -2 19 4 8 7 14 7 19 -1 3 -5 11 -10 17 -10 6 0 5 6 -2 16 -8
8 -9 14 -4 12 5 -1 18 2 29 8 11 6 30 9 43 8 15 -1 21 3 18 12 -3 8 2 11 14 9
11 -2 23 3 28 10 4 8 16 16 27 18 11 2 30 8 41 15 12 6 24 8 28 5 3 -3 6 -2 6
4 0 18 31 24 48 11 13 -11 15 -10 9 4 -4 12 4 22 34 37 21 11 39 18 39 14 0
-4 11 4 25 17 14 13 25 20 25 15 0 -5 5 -4 12 3 8 8 15 8 24 1 7 -6 17 -8 22
-5z m-3953 -157 c4 5 5 3 2 -3 -4 -7 3 -11 19 -11 27 0 41 -9 31 -19 -4 -4
-13 -2 -20 4 -8 7 -16 9 -19 6 -10 -9 -69 26 -62 37 4 7 12 5 23 -5 10 -9 21
-13 26 -9z m3637 -9 c-8 -8 -8 -15 -1 -24 7 -8 6 -11 -3 -10 -7 0 -15 -3 -16
-9 -7 -19 -24 -35 -33 -29 -8 5 48 84 60 84 3 0 0 -5 -7 -12z m2068 -50 c13 4
12 2 -1 -14 -9 -10 -14 -26 -12 -34 2 -8 -2 -4 -10 9 -9 15 -17 20 -21 12 -4
-6 -2 -11 5 -11 8 0 8 -4 1 -12 -7 -10 -4 -20 13 -40 13 -15 27 -24 31 -20 5
4 2 -1 -5 -10 -18 -24 -31 -23 -26 1 3 14 -1 18 -12 14 -11 -4 -11 -8 -3 -13
9 -5 9 -9 1 -14 -6 -4 -11 -2 -11 4 0 6 -5 8 -11 4 -7 -4 -7 -9 -2 -13 5 -3 9
-18 8 -33 -1 -19 2 -25 12 -21 8 3 11 9 6 12 -13 10 -15 33 -2 25 8 -5 9 -3 4
7 -5 8 -4 11 1 6 5 -5 9 -16 9 -25 0 -9 6 -16 13 -14 10 2 10 -2 3 -16 -7 -14
-6 -25 5 -40 10 -15 11 -22 3 -22 -8 0 -8 -4 1 -15 9 -10 9 -15 1 -15 -11 0
-14 11 -12 40 0 11 -1 11 -5 2 -5 -10 -9 -9 -18 4 -10 13 -15 14 -21 4 -5 -8
-4 -11 2 -7 6 4 15 -4 21 -17 9 -21 7 -27 -11 -41 -12 -9 -17 -13 -10 -10 6 3
14 1 18 -5 4 -6 11 -8 16 -5 5 4 9 1 9 -4 0 -6 -4 -11 -10 -11 -5 0 -9 -3 -9
-7 1 -5 0 -10 -1 -13 -7 -20 -7 -40 1 -40 6 0 7 -4 4 -10 -3 -5 -1 -10 6 -10
7 0 5 -6 -6 -13 -13 -10 -15 -16 -6 -21 6 -4 9 -11 6 -15 -2 -5 4 -17 13 -27
18 -18 18 -20 0 -38 -12 -13 -14 -22 -7 -27 7 -4 4 -9 -7 -13 -22 -9 -30 0
-15 18 8 10 9 16 1 21 -6 3 -7 12 -3 18 12 19 12 37 1 37 -6 0 -7 -8 -3 -17 4
-13 3 -15 -5 -7 -16 16 -30 73 -19 79 14 9 11 27 -3 19 -10 -5 -10 -4 -1 6 9
10 10 17 2 27 -7 7 -7 13 -2 13 5 0 8 26 7 57 -1 32 2 64 8 70 8 10 6 13 -8
13 -14 0 -16 2 -6 9 8 4 13 11 12 14 -1 4 -5 20 -10 37 -5 18 -5 32 1 36 6 3
5 12 -3 22 -10 13 -10 14 0 8 9 -6 11 -1 8 18 -3 14 -8 31 -12 37 -4 7 -3 9 4
5 6 -3 13 -2 17 4 3 5 2 10 -2 10 -5 0 -10 12 -11 26 l-2 25 28 -19 c15 -11
34 -17 42 -14z m-2548 -136 c7 -7 8 -12 3 -12 -5 0 -2 -6 6 -12 8 -7 12 -12
10 -10 -2 1 -13 -5 -23 -15 -11 -9 -18 -11 -18 -5 0 7 -5 11 -11 10 -6 -2 -13
5 -14 14 -2 10 0 17 3 17 19 -3 23 2 13 15 -10 11 -9 14 4 12 8 -1 21 -8 27
-14z m83 -21 c3 -5 0 -13 -6 -17 -7 -4 -9 -3 -5 4 3 5 0 13 -6 15 -9 4 -10 6
-1 6 6 1 14 -3 18 -8z m2410 -360 c-3 -5 -1 -13 5 -16 8 -5 8 -11 0 -20 -11
-14 -1 -48 13 -46 16 2 44 -37 36 -50 -7 -12 -9 -12 -9 0 0 11 -3 11 -15 1
-13 -11 -12 -17 12 -48 l26 -35 -24 -21 c-31 -26 -32 -51 -1 -52 32 -2 33 -6
11 -33 -10 -13 -19 -18 -19 -12 0 6 -9 3 -20 -6 -18 -16 -18 -19 -5 -40 9 -13
13 -23 9 -23 -4 0 -1 -6 5 -13 15 -19 3 -28 -20 -14 -21 13 -26 37 -6 37 8 0
8 3 2 8 -12 8 -18 192 -7 192 4 0 7 -34 7 -74 -1 -60 2 -73 12 -64 7 5 10 15
6 22 -11 17 -11 76 0 69 6 -3 7 -1 3 5 -4 8 -2 10 7 6 8 -3 18 -1 22 5 3 7 0
8 -9 5 -9 -3 -16 -1 -16 5 0 6 5 11 11 11 5 0 7 5 3 11 -5 8 -9 8 -14 -1 -5
-9 -9 -9 -14 -1 -4 6 -2 11 3 11 6 0 11 4 11 8 0 5 -7 9 -15 9 -8 0 -12 -4 -9
-9 3 -4 0 -8 -5 -8 -6 0 -11 7 -11 16 0 9 6 14 13 11 8 -3 14 1 14 8 0 7 -6
11 -12 8 -9 -3 -12 12 -12 51 0 31 4 56 9 56 5 0 6 5 3 10 -4 6 -11 8 -16 5
-5 -3 -6 1 -3 9 3 9 10 16 16 16 5 0 7 -4 3 -9z m70 -441 c3 -5 2 -10 -4 -10
-5 0 -13 5 -16 10 -3 6 -2 10 4 10 5 0 13 -4 16 -10z m-5 -50 c0 -5 -4 -10
-10 -10 -5 0 -10 5 -10 10 0 6 5 10 10 10 6 0 10 -4 10 -10z m-60 -40 c0 -5
-5 -10 -11 -10 -5 0 -7 5 -4 10 3 6 8 10 11 10 2 0 4 -4 4 -10z m2 -915 c0 -5
-5 -11 -11 -13 -6 -2 -11 4 -11 13 0 9 5 15 11 13 6 -2 11 -8 11 -13z m32 -71
c-16 -13 -25 -24 -20 -24 5 0 3 -7 -4 -15 -10 -13 -10 -19 2 -33 25 -29 30
-42 15 -36 -10 3 -14 -2 -13 -18 1 -18 7 -22 25 -20 14 1 21 -2 18 -10 -2 -7
-11 -12 -20 -10 -10 2 -15 -4 -14 -18 1 -11 5 -20 11 -20 5 0 1 -9 -9 -20 -14
-16 -20 -17 -27 -8 -14 22 -9 31 10 17 15 -13 16 -12 4 3 -10 13 -10 17 0 20
8 3 6 7 -6 11 -11 5 -15 3 -10 -5 5 -7 3 -8 -6 -3 -9 6 -11 4 -5 -5 5 -8 4
-11 -2 -7 -6 4 -17 -1 -24 -11 -12 -15 -12 -16 2 -4 14 10 18 10 22 -2 3 -7 1
-18 -5 -24 -8 -8 -17 -4 -31 14 l-19 25 -23 -21 c-28 -26 -62 -33 -69 -14 -3
8 -2 12 3 9 5 -3 13 -1 16 5 5 8 11 8 20 0 10 -9 13 -7 11 7 -2 12 -12 18 -34
19 -17 1 -29 -2 -27 -7 9 -13 -7 -39 -19 -31 -16 10 -69 11 -83 0 -7 -6 -20
-5 -35 3 -32 18 -41 17 -56 -3 -16 -22 -84 -18 -112 7 -12 11 -20 13 -25 5 -3
-5 -10 -8 -15 -5 -4 3 -11 -3 -15 -13 -6 -16 -7 -16 -20 2 -13 17 -15 18 -21
2 -5 -13 -9 -14 -20 -5 -10 8 -17 9 -28 0 -10 -8 -19 -7 -37 8 -22 17 -27 17
-44 5 -31 -23 -38 -16 -16 14 15 22 17 29 6 29 -8 0 -11 -5 -8 -10 3 -6 1 -7
-5 -3 -7 4 -10 2 -9 -6 2 -7 2 -10 0 -5 -3 4 -9 7 -15 7 -6 0 -4 -7 3 -17 12
-14 12 -16 0 -8 -10 6 -12 4 -6 -6 5 -8 0 -7 -11 3 -16 14 -23 15 -32 6 -7 -7
-12 -8 -12 -2 0 5 -4 3 -9 -4 -6 -10 -13 -11 -34 -1 -15 7 -27 16 -27 21 0 12
18 10 22 -4 3 -7 7 -5 11 6 5 11 3 15 -5 10 -7 -4 -8 -3 -4 4 5 8 2 10 -8 6
-9 -3 -16 -2 -16 3 0 4 193 8 433 8 l432 0 -3 34 c-3 26 0 33 10 28 10 -3 14
3 14 18 0 13 -4 21 -8 19 -5 -3 -6 -10 -3 -15 4 -5 1 -9 -4 -9 -6 0 -11 7 -11
15 0 8 6 15 13 15 7 0 8 3 2 8 -6 4 -12 30 -13 59 -2 44 1 53 18 58 11 3 20
11 20 17 0 6 10 -2 22 -17 l22 -28 -30 -23z m-174 -208 c0 -3 -4 -8 -10 -11
-5 -3 -10 -1 -10 4 0 6 5 11 10 11 6 0 10 -2 10 -4z m-592 -54 c2 -6 -5 -9
-15 -7 -10 2 -21 4 -25 4 -5 1 -8 5 -8 11 0 13 43 6 48 -8z"/>
<path d="M14426 12048 c3 -4 9 -8 15 -8 5 0 9 4 9 8 0 5 -7 9 -15 9 -8 0 -12
-4 -9 -9z"/>
<path d="M14424 11990 c0 -9 6 -17 13 -16 22 4 25 14 6 24 -15 8 -19 7 -19 -8z"/>
<path d="M7820 12272 c0 -7 -4 -11 -9 -7 -5 3 -13 0 -17 -6 -5 -8 -3 -9 6 -4
9 5 11 1 6 -16 -3 -13 -3 -18 0 -11 3 6 9 10 14 7 12 -7 19 20 9 36 -7 11 -9
11 -9 1z"/>
<path d="M7800 12189 c-8 -5 -10 -9 -4 -9 13 0 15 -33 2 -41 -5 -3 -3 -9 5
-12 9 -3 21 1 27 8 10 12 9 16 -4 21 -12 5 -14 10 -6 19 14 17 -1 27 -20 14z"/>
<path d="M7790 12095 c0 -2 6 -8 13 -14 10 -8 14 -7 14 2 0 8 -6 14 -14 14 -7
0 -13 -1 -13 -2z"/>
<path d="M14426 11917 c3 -8 11 -14 19 -14 20 0 19 4 -5 17 -15 8 -18 8 -14
-3z"/>
<path d="M14424 11831 c0 -11 5 -17 13 -14 10 4 11 9 2 19 -15 18 -15 18 -15
-5z"/>
<path d="M14430 11709 c0 -4 6 -9 13 -12 8 -3 14 0 14 7 0 7 -6 13 -14 13 -7
0 -13 -4 -13 -8z"/>
<path d="M14423 11638 c0 -13 1 -17 4 -10 3 6 10 9 16 5 7 -4 6 1 -2 10 -17
21 -17 21 -18 -5z"/>
<path d="M14427 11587 c-2 -6 -3 -29 -2 -50 2 -20 -1 -40 -6 -43 -5 -3 -5 -13
1 -23 5 -10 6 -21 2 -25 -3 -4 2 -4 12 0 13 5 14 9 5 15 -10 6 -10 11 -1 22 7
7 9 16 7 19 -12 12 -14 53 -2 60 9 6 8 8 -3 8 -12 0 -12 2 -1 9 8 5 9 11 3 15
-5 3 -12 0 -15 -7z"/>
<path d="M14455 11399 c-4 -6 -5 -12 -2 -15 2 -3 7 2 10 11 7 17 1 20 -8 4z"/>
<path d="M7820 11885 c-7 -8 -9 -15 -6 -15 4 0 1 -10 -5 -22 -11 -21 -11 -22
4 -9 16 12 22 8 18 -12 -1 -5 4 -5 10 -2 8 5 8 10 0 18 -18 18 -12 31 7 16 16
-13 16 -13 2 5 -8 11 -13 21 -12 23 10 13 -7 11 -18 -2z"/>
<path d="M7790 11796 c0 -2 7 -7 16 -10 8 -3 12 -2 9 4 -6 10 -25 14 -25 6z"/>
<path d="M7816 11762 c-3 -3 -6 -10 -6 -16 0 -6 5 -4 10 4 7 11 10 12 10 2 0
-15 20 -12 23 2 2 10 -29 17 -37 8z"/>
<path d="M14420 11310 c0 -5 8 -10 17 -10 15 0 15 -1 -1 -13 -16 -12 -16 -14
-3 -14 18 0 29 19 19 33 -10 13 -32 16 -32 4z"/>
<path d="M14423 11095 c0 -8 4 -12 9 -9 5 3 6 10 3 15 -9 13 -12 11 -12 -6z"/>
<path d="M14420 10806 c0 -2 8 -10 18 -17 15 -13 16 -12 3 4 -13 16 -21 21
-21 13z"/>
<path d="M14415 10731 c-3 -5 -1 -12 5 -16 6 -4 7 -11 4 -17 -4 -7 -2 -8 4 -4
7 4 12 3 12 -3 0 -5 -4 -12 -9 -16 -5 -3 -8 -16 -5 -30 2 -13 0 -27 -6 -30 -6
-4 -7 -13 -1 -23 9 -17 11 -24 11 -43 0 -5 5 -7 11 -3 8 5 8 9 -1 14 -8 5 -7
9 5 14 9 3 14 10 11 15 -3 5 1 12 10 15 15 6 15 8 0 31 -10 16 -12 25 -5 25 6
0 0 15 -14 34 -15 18 -23 36 -20 40 4 3 4 6 0 6 -3 0 -8 -4 -12 -9z m35 -61
c0 -5 -5 -10 -11 -10 -5 0 -7 5 -4 10 3 6 8 10 11 10 2 0 4 -4 4 -10z m10 -40
c8 -16 8 -18 -4 -14 -11 4 -14 0 -11 -15 4 -24 -10 -29 -18 -7 -3 8 1 20 9 27
12 10 12 14 2 20 -10 6 -10 9 -1 9 7 0 17 -9 23 -20z"/>
<path d="M14425 10462 c-6 -6 4 -22 15 -22 4 0 10 6 13 13 5 13 -17 20 -28 9z"/>
<path d="M14425 10390 c2 -28 10 -33 24 -16 10 12 9 17 -7 25 -15 8 -18 7 -17
-9z"/>
<path d="M14463 10028 c2 -7 -3 -19 -12 -26 -14 -11 -13 -12 6 -2 14 6 20 16
17 25 -7 18 -17 20 -11 3z"/>
<path d="M14418 9848 c7 -9 11 -21 10 -28 -4 -18 19 -24 25 -6 4 9 -5 21 -21
32 -22 14 -24 14 -14 2z"/>
<path d="M14425 9750 c2 -28 10 -33 24 -16 10 12 9 17 -7 25 -15 8 -18 7 -17
-9z"/>
<path d="M14463 9388 c2 -7 -3 -19 -12 -26 -14 -11 -13 -12 6 -2 14 6 20 16
17 25 -7 18 -17 20 -11 3z"/>
<path d="M13301 9285 c-19 -19 -38 -32 -42 -29 -4 2 -12 -3 -18 -10 -8 -9 -8
-16 -2 -20 5 -4 12 -2 16 4 4 6 10 8 15 5 4 -3 13 2 20 10 9 11 16 12 25 5 8
-7 12 -6 13 3 0 6 3 24 6 40 4 15 5 27 4 26 -2 0 -19 -15 -37 -34z m21 -2 c-6
-2 -9 -10 -5 -16 3 -7 2 -9 -2 -4 -5 4 -18 -1 -29 -10 -15 -13 -14 -10 3 10
14 15 29 27 35 26 6 0 5 -3 -2 -6z"/>
<path d="M13190 9216 c0 -2 8 -10 18 -17 15 -13 16 -12 3 4 -13 16 -21 21 -21
13z"/>
<path d="M13129 9183 c-1 -4 -1 -11 0 -16 1 -4 -10 -5 -23 -3 -29 5 -54 -18
-34 -30 14 -9 61 -14 53 -6 -3 3 2 16 10 28 9 14 11 25 5 29 -6 3 -11 3 -11
-2z m-16 -39 c-3 -9 -23 -13 -36 -6 -4 2 -5 7 -2 12 7 11 41 6 38 -6z"/>
<path d="M12953 9071 c-10 -10 -26 -17 -35 -16 -9 2 -23 -4 -30 -13 -7 -10 -8
-14 -4 -10 5 4 15 3 23 -4 11 -9 13 -8 11 2 -2 8 3 15 10 16 6 1 15 3 20 4 4
1 12 1 17 0 6 -1 7 2 3 6 -4 4 -3 13 3 21 17 20 2 16 -18 -6z"/>
<path d="M13256 9077 c3 -10 9 -15 12 -12 3 3 0 11 -7 18 -10 9 -11 8 -5 -6z"/>
<path d="M13197 9073 c-10 -10 -8 -23 4 -23 5 0 7 5 3 12 -5 8 -2 9 10 5 10
-4 15 -3 11 3 -7 12 -19 13 -28 3z"/>
<path d="M13100 9032 c0 -4 9 -8 19 -8 11 0 17 4 15 8 -3 4 -12 8 -20 8 -8 0
-14 -4 -14 -8z"/>
<path d="M12837 9008 c-9 -5 -17 -6 -17 -2 0 4 -9 -1 -20 -11 -11 -10 -20 -14
-20 -10 0 4 -9 0 -20 -10 -15 -14 -17 -21 -9 -32 10 -11 14 -11 28 2 10 8 27
13 39 10 12 -2 24 1 27 6 4 5 10 7 14 4 5 -2 16 1 26 8 16 12 16 14 -7 29 -17
11 -29 13 -41 6z m41 -29 c-7 -4 -15 -6 -19 -3 -4 2 -10 0 -14 -5 -3 -5 -15
-8 -27 -6 -12 3 -30 -2 -39 -11 -10 -9 -19 -11 -23 -5 -7 10 10 24 34 28 8 1
16 7 18 13 3 7 10 4 19 -7 8 -10 11 -12 7 -4 -9 19 16 31 37 18 13 -8 15 -13
7 -18z"/>
<path d="M12846 8992 c-3 -5 1 -9 9 -9 8 0 12 4 9 9 -3 4 -7 8 -9 8 -2 0 -6
-4 -9 -8z"/>
<path d="M13000 8949 c0 -5 5 -7 10 -4 6 3 10 8 10 11 0 2 -4 4 -10 4 -5 0
-10 -5 -10 -11z"/>
<path d="M12870 8870 c0 -4 7 -7 15 -6 23 3 26 12 5 13 -11 1 -20 -2 -20 -7z"/>
<path d="M12790 8840 c-11 -7 -11 -10 -2 -10 8 0 10 -5 6 -12 -4 -7 -3 -9 1
-5 7 6 17 37 12 37 -1 0 -9 -5 -17 -10z"/>
<path d="M12760 8826 c0 -8 4 -17 9 -20 5 -4 7 3 4 14 -6 23 -13 26 -13 6z"/>
<path d="M12719 8820 c-5 -28 -3 -33 14 -36 9 -1 17 2 17 8 0 6 -7 7 -16 4
-12 -4 -14 -1 -9 14 4 11 4 20 1 20 -3 0 -7 -4 -7 -10z"/>
<path d="M12586 8737 c-17 -12 -17 -14 1 -28 16 -13 17 -13 4 4 -7 9 -11 17
-8 17 3 0 13 3 23 7 13 5 15 3 9 -7 -5 -9 -4 -11 4 -6 11 7 6 26 -8 26 -4 0
-15 -6 -25 -13z"/>
<path d="M12655 8741 c-3 -5 -2 -12 3 -15 5 -3 9 1 9 9 0 17 -3 19 -12 6z"/>
<path d="M12470 8701 c0 -6 4 -13 10 -16 6 -3 7 1 4 9 -7 18 -14 21 -14 7z"/>
<path d="M12506 8693 c-6 -14 -5 -15 5 -6 7 7 10 15 7 18 -3 3 -9 -2 -12 -12z"/>
<path d="M12440 8650 c-9 -6 -10 -10 -3 -10 6 0 15 5 18 10 8 12 4 12 -15 0z"/>
<path d="M12368 8633 c6 -2 9 -10 6 -15 -4 -7 -2 -8 5 -4 13 9 5 26 -12 25 -9
0 -8 -2 1 -6z"/>
<path d="M11926 8608 c3 -5 10 -6 15 -3 13 9 11 12 -6 12 -8 0 -12 -4 -9 -9z"/>
<path d="M12270 8611 c0 -6 4 -13 10 -16 6 -3 7 1 4 9 -7 18 -14 21 -14 7z"/>
<path d="M12310 8611 c0 -6 4 -13 10 -16 6 -3 7 1 4 9 -7 18 -14 21 -14 7z"/>
<path d="M11865 8602 c-5 -4 -12 -16 -13 -27 -4 -23 0 -20 17 13 12 24 12 26
-4 14z"/>
<path d="M12126 8553 c-6 -14 -5 -15 5 -6 7 7 10 15 7 18 -3 3 -9 -2 -12 -12z"/>
<path d="M12076 8532 c-3 -4 4 -9 15 -9 23 -2 25 3 4 10 -8 4 -16 3 -19 -1z"/>
<path d="M12014 8509 c-3 -6 -1 -16 6 -22 10 -9 11 -9 5 2 -4 8 -2 17 6 22 9
6 10 9 2 9 -6 0 -15 -5 -19 -11z"/>
<path d="M11950 8499 c-12 -8 -10 -9 9 -4 17 5 22 4 16 -5 -5 -9 -4 -11 4 -6
6 4 9 12 6 17 -8 12 -16 11 -35 -2z"/>
<path d="M14461 9168 c-16 -26 -11 -30 11 -7 10 10 14 20 10 23 -5 3 -14 -4
-21 -16z"/>
<path d="M13285 9211 c-3 -5 -2 -12 3 -15 5 -3 9 1 9 9 0 17 -3 19 -12 6z"/>
<path d="M13206 9143 c-6 -14 -5 -15 5 -6 7 7 10 15 7 18 -3 3 -9 -2 -12 -12z"/>
<path d="M14420 9070 c0 -5 8 -10 17 -10 15 0 15 -1 -1 -13 -16 -12 -16 -14
-3 -14 18 0 29 19 19 33 -10 13 -32 16 -32 4z"/>
<path d="M14426 8848 c3 -4 9 -8 15 -8 5 0 9 4 9 8 0 5 -7 9 -15 9 -8 0 -12
-4 -9 -9z"/>
<path d="M14424 8790 c0 -9 6 -17 13 -16 22 4 25 14 6 24 -15 8 -19 7 -19 -8z"/>
<path d="M12935 9009 c-3 -3 3 -13 13 -20 9 -7 14 -9 10 -5 -4 5 -3 14 2 21 7
8 5 12 -6 12 -8 0 -17 -4 -19 -8z"/>
<path d="M12685 8930 c-3 -6 -10 -8 -14 -5 -5 2 -16 -4 -26 -15 -10 -11 -21
-17 -25 -15 -4 3 -19 -4 -32 -15 -14 -11 -29 -16 -34 -12 -5 4 -3 0 4 -9 10
-14 10 -18 -2 -22 -7 -3 -19 0 -25 6 -8 8 -16 6 -31 -8 -11 -10 -20 -15 -20
-11 0 4 -9 2 -21 -4 -15 -8 -17 -15 -10 -24 7 -9 6 -19 -5 -34 -8 -12 -11 -22
-5 -22 5 0 11 6 14 13 3 9 8 9 21 -2 9 -8 16 -10 14 -5 -2 5 5 20 15 34 15 22
22 21 18 -3 -1 -5 3 -6 8 -3 5 4 8 15 6 26 -4 22 2 25 24 11 9 -6 22 -4 36 5
12 8 24 13 26 12 2 -2 1 1 -3 7 -14 16 -8 28 7 15 11 -9 19 -10 28 -1 10 8 17
7 25 -1 9 -9 17 -7 32 7 16 14 17 20 8 27 -10 6 -10 8 -1 8 7 0 16 -7 21 -16
8 -14 10 -14 22 1 11 13 10 15 -2 10 -11 -5 -15 0 -14 17 1 15 -4 22 -13 20
-7 -1 -19 2 -26 8 -9 8 -15 8 -20 0z m43 -16 c5 3 9 -1 9 -8 0 -7 -7 -13 -16
-12 -10 1 -15 -6 -13 -15 3 -19 -24 -33 -34 -18 -4 6 -11 5 -21 -3 -12 -10
-17 -9 -27 4 -11 15 -13 15 -24 -3 -9 -15 -9 -19 0 -19 6 0 3 -6 -7 -14 -11
-8 -25 -11 -33 -8 -12 4 -11 7 2 14 9 5 14 13 11 17 -6 10 18 32 39 35 8 1 24
10 36 21 11 10 20 14 20 10 0 -5 5 -4 12 3 8 8 15 8 24 1 7 -6 17 -8 22 -5z
m-201 -93 c0 -11 -4 -18 -8 -15 -4 2 -14 -8 -24 -22 -15 -23 -30 -25 -30 -6 0
4 -4 13 -9 21 -6 10 -5 12 2 7 7 -4 12 -2 12 4 0 6 4 9 9 6 5 -3 14 1 21 9 17
21 29 19 27 -4z"/>
<path d="M12685 8910 c-4 -6 -10 -8 -14 -5 -11 6 -46 -33 -38 -41 4 -4 13 -2
20 4 10 9 17 8 25 0 7 -7 13 -9 13 -5 1 4 2 10 3 15 1 4 5 12 9 19 4 6 3 14
-2 17 -5 4 -12 2 -16 -4z m6 -13 c-6 -8 -7 -18 -3 -23 4 -4 0 -3 -9 4 -12 9
-19 9 -29 -1 -12 -10 -12 -9 -1 5 7 10 17 16 21 13 5 -3 11 -1 15 5 3 5 9 10
12 10 3 0 0 -6 -6 -13z"/>
<path d="M12495 8812 c-17 -15 -31 -42 -22 -42 2 0 13 14 25 30 26 34 25 36
-3 12z"/>
<path d="M12385 8780 c-4 -6 -11 -7 -17 -4 -7 4 -8 2 -4 -4 6 -10 -7 -17 -17
-9 -2 1 -11 -4 -20 -12 -14 -11 -17 -11 -17 0 0 12 -2 12 -9 1 -4 -8 -11 -13
-15 -13 -3 1 -5 -1 -3 -2 1 -2 -4 -12 -12 -21 -14 -16 -15 -16 -24 0 -9 16
-11 16 -23 -1 -10 -14 -14 -15 -14 -4 -1 10 -3 9 -11 -4 -6 -9 -14 -15 -18
-12 -5 2 -14 -2 -21 -10 -7 -8 -16 -12 -21 -9 -5 3 -9 -1 -9 -8 0 -11 -2 -10
-9 0 -7 11 -9 10 -15 -3 -3 -9 -10 -13 -16 -10 -5 3 -16 3 -22 -2 -7 -4 -21
-8 -30 -9 -10 -1 -21 -3 -25 -4 -5 -2 -15 -3 -23 -4 -8 -1 -13 -6 -10 -11 3
-6 9 -9 14 -7 5 2 19 -7 32 -19 13 -12 25 -19 25 -16 1 4 2 10 3 15 3 18 19
33 30 29 6 -3 27 8 46 24 36 30 52 31 29 2 -12 -16 -12 -17 2 -6 12 10 18 10
29 0 8 -8 11 -8 7 -1 -7 13 17 27 27 16 14 -13 35 -9 52 9 9 10 14 19 9 19 -4
0 -2 7 5 15 11 13 14 13 26 -2 12 -17 12 -17 11 2 -1 11 3 19 10 18 6 -1 23
13 38 32 14 19 24 35 21 35 -3 0 -8 -5 -11 -10z m-31 -42 c-3 -5 -9 -6 -14 -3
-5 3 -11 1 -15 -5 -4 -6 -10 -8 -14 -5 -5 2 -16 -4 -26 -15 -10 -11 -15 -20
-10 -20 4 0 2 -6 -4 -14 -10 -11 -37 -15 -48 -6 -8 7 -29 4 -34 -3 -3 -5 -9
-1 -12 8 -4 9 -3 13 2 10 5 -3 12 -1 16 5 4 6 11 8 16 5 5 -4 12 1 16 10 6 16
7 16 15 0 9 -15 11 -15 29 1 10 9 16 20 13 25 -2 4 4 6 16 4 11 -2 22 0 24 4
3 4 12 8 20 8 8 0 13 -4 10 -9z m-244 -93 c-7 -8 -17 -12 -22 -9 -13 8 -49
-26 -41 -40 4 -6 -3 -3 -15 8 -24 21 -21 36 6 31 9 -1 22 2 29 7 7 5 17 7 22
4 5 -4 12 -2 16 4 3 5 9 10 12 10 3 0 0 -7 -7 -15z"/>
<path d="M12225 8690 c-3 -5 -5 -10 -3 -11 27 -6 39 -5 45 4 3 7 3 9 -2 5 -4
-4 -14 -3 -21 3 -8 7 -14 7 -19 -1z"/>
<path d="M12026 8618 c3 -5 10 -6 15 -3 13 9 11 12 -6 12 -8 0 -12 -4 -9 -9z"/>
<path d="M14426 8717 c3 -8 11 -14 19 -14 20 0 19 4 -5 17 -15 8 -18 8 -14 -3z"/>
<path d="M14424 8631 c0 -11 5 -17 13 -14 10 4 11 9 2 19 -15 18 -15 18 -15
-5z"/>
<path d="M14430 8509 c0 -4 6 -9 13 -12 8 -3 14 0 14 7 0 7 -6 13 -14 13 -7 0
-13 -4 -13 -8z"/>
<path d="M14423 8438 c0 -13 1 -17 4 -10 3 6 10 9 16 5 7 -4 6 1 -2 10 -17 21
-17 21 -18 -5z"/>
<path d="M14427 8387 c-2 -6 -3 -29 -2 -50 2 -20 -1 -40 -6 -43 -5 -3 -5 -13
1 -23 5 -10 6 -21 2 -25 -3 -4 2 -4 12 0 13 5 14 9 5 15 -10 6 -10 11 -1 22 7
7 9 16 7 19 -12 12 -14 53 -2 60 9 6 8 8 -3 8 -12 0 -12 2 -1 9 8 5 9 11 3 15
-5 3 -12 0 -15 -7z"/>
<path d="M14455 8199 c-4 -6 -5 -12 -2 -15 2 -3 7 2 10 11 7 17 1 20 -8 4z"/>
<path d="M11915 8583 c3 -3 -3 -16 -12 -27 -15 -17 -15 -18 -1 -8 13 10 17 10
21 0 3 -7 5 -3 3 9 -1 12 -5 25 -9 28 -4 3 -5 2 -2 -2z"/>
<path d="M14420 8110 c0 -5 8 -10 17 -10 15 0 15 -1 -1 -13 -16 -12 -16 -14
-3 -14 18 0 29 19 19 33 -10 13 -32 16 -32 4z"/>
<path d="M14440 7904 c0 -1 6 -7 14 -13 10 -9 15 -8 19 2 3 8 -3 13 -14 13
-11 0 -19 -1 -19 -2z"/>
<path d="M14426 7801 c-3 -5 2 -15 12 -22 15 -12 16 -12 5 2 -7 9 -10 19 -6
22 3 4 4 7 0 7 -3 0 -8 -4 -11 -9z"/>
<path d="M14450 6731 c0 -6 -5 -10 -12 -8 -8 1 -13 -12 -13 -40 -1 -23 3 -39
7 -37 5 3 6 9 3 14 -3 4 7 18 22 29 16 12 20 18 11 15 -10 -3 -18 -2 -18 4 0
6 5 12 12 14 9 3 9 6 0 12 -7 4 -12 2 -12 -3z m-7 -26 c4 -8 3 -16 -1 -19 -4
-3 -9 4 -9 15 -2 23 3 25 10 4z"/>
<path d="M14424 6540 c1 -14 6 -24 9 -22 11 4 11 6 -1 27 -11 19 -12 18 -8 -5z"/>
<path d="M13607 6482 c11 -11 21 -14 25 -8 4 6 13 4 24 -5 10 -8 15 -9 11 -2
-4 7 0 16 10 22 10 6 13 11 6 11 -6 0 -15 -5 -18 -10 -4 -6 -11 -8 -16 -4 -5
3 -21 7 -34 10 -25 4 -25 4 -8 -14z"/>
<path d="M13732 6476 c-12 -14 -13 -17 -2 -11 20 12 50 14 56 3 3 -4 -1 -8 -8
-8 -10 0 -9 -3 2 -9 20 -13 34 -2 19 15 -16 20 1 17 23 -3 19 -17 20 -16 39 7
16 21 18 22 13 5 -5 -16 -4 -17 5 -5 9 12 11 13 11 1 0 -8 2 -12 5 -9 3 3 3
12 0 19 -4 11 -24 15 -76 15 -57 -1 -73 -4 -87 -20z m121 -3 c-3 -7 -9 -13
-13 -13 -4 0 -12 6 -18 13 -9 10 -6 13 12 13 16 0 22 -5 19 -13z"/>
<path d="M13926 6488 c3 -4 0 -8 -5 -8 -6 0 -11 -5 -11 -11 0 -8 5 -7 16 2 13
11 17 10 25 -3 11 -19 36 -18 51 3 8 11 9 9 5 -7 -3 -13 1 -21 10 -21 8 0 11
7 8 18 -7 22 13 35 28 20 9 -9 8 -11 -5 -6 -10 4 -18 3 -18 -3 0 -18 17 -23
29 -8 10 12 37 15 49 6 1 -2 5 -3 10 -4 4 -1 12 -5 19 -9 6 -4 14 -3 18 3 4 6
10 8 14 5 5 -2 16 4 25 14 15 17 15 18 -6 17 -13 -1 -28 -5 -35 -9 -6 -4 -14
-4 -17 1 -6 10 -157 9 -173 -1 -7 -5 -13 -4 -13 1 0 5 -7 9 -15 9 -8 0 -12 -4
-9 -9z m67 -16 c-5 -11 -7 -11 -14 0 -7 11 -9 10 -9 -1 0 -8 -3 -12 -6 -8 -9
9 3 24 20 24 8 0 12 -6 9 -15z m143 5 c6 -3 14 -3 18 0 10 11 37 12 30 2 -3
-5 -9 -7 -14 -4 -5 3 -12 1 -15 -5 -5 -8 -11 -8 -19 -1 -7 6 -15 8 -18 5 -3
-3 -9 -1 -12 4 -7 11 12 11 30 -1z"/>
<path d="M14220 6485 c-7 -9 -10 -18 -6 -22 3 -3 6 0 6 8 0 12 2 12 9 0 6 -9
11 -10 15 -2 4 6 1 11 -6 11 -9 0 -9 3 2 10 8 5 10 10 4 10 -6 0 -17 -7 -24
-15z"/>
<path d="M14321 6484 c5 -6 5 -15 1 -20 -4 -5 2 -1 14 8 16 14 23 15 33 5 10
-9 11 -9 6 4 -4 11 -17 16 -35 15 -20 0 -26 -4 -19 -12z"/>
<path d="M13593 6465 c0 -8 4 -12 9 -9 4 3 8 9 8 15 0 5 -4 9 -8 9 -5 0 -9 -7
-9 -15z"/>
<path d="M7810 12350 c-11 -7 -11 -10 -2 -10 8 0 10 -5 6 -12 -4 -7 -3 -9 1
-5 7 6 17 37 12 37 -1 0 -9 -5 -17 -10z"/>
<path d="M14455 12350 c-3 -5 -1 -10 4 -10 6 0 11 5 11 10 0 6 -2 10 -4 10 -3
0 -8 -4 -11 -10z"/>
<path d="M14495 12351 c-3 -5 -2 -12 3 -15 5 -3 9 1 9 9 0 17 -3 19 -12 6z"/>
<path d="M7855 12330 c3 -5 8 -10 11 -10 2 0 4 5 4 10 0 6 -5 10 -11 10 -5 0
-7 -4 -4 -10z"/>
<path d="M7890 12331 c0 -6 4 -13 10 -16 6 -3 7 1 4 9 -7 18 -14 21 -14 7z"/>
<path d="M14486 12308 c3 -4 9 -8 15 -8 5 0 9 4 9 8 0 5 -7 9 -15 9 -8 0 -12
-4 -9 -9z"/>
<path d="M7860 12275 c0 -7 30 -13 34 -7 3 4 -4 9 -15 9 -10 1 -19 0 -19 -2z"/>
<path d="M7896 12243 c-6 -14 -5 -15 5 -6 7 7 10 15 7 18 -3 3 -9 -2 -12 -12z"/>
<path d="M14510 12213 c0 -5 5 -15 10 -23 7 -12 9 -10 7 8 -1 19 -17 33 -17
15z"/>
<path d="M7909 12193 c-13 -16 -12 -17 4 -4 9 7 17 15 17 17 0 8 -8 3 -21 -13z"/>
<path d="M14480 12196 c0 -2 7 -9 15 -16 13 -11 14 -10 9 4 -5 14 -24 23 -24
12z"/>
<path d="M7910 12166 c0 -2 8 -10 18 -17 15 -13 16 -12 3 4 -13 16 -21 21 -21
13z"/>
<path d="M7865 12130 c-3 -5 -2 -17 3 -26 8 -15 10 -15 15 0 4 10 3 15 -3 11
-6 -3 -10 -2 -10 4 0 5 6 12 13 14 9 4 9 6 0 6 -6 1 -15 -3 -18 -9z"/>
<path d="M14523 12133 c-7 -2 -13 -9 -13 -15 0 -7 5 -7 13 1 8 6 18 7 22 3 5
-4 5 -1 1 6 -4 6 -8 12 -9 11 -1 0 -8 -3 -14 -6z"/>
<path d="M7797 11987 c-3 -7 1 -21 9 -32 8 -10 14 -14 14 -8 0 7 -4 14 -10 18
-5 3 -7 12 -3 20 3 8 3 15 0 15 -3 0 -7 -6 -10 -13z"/>
<path d="M14515 11970 c-17 -8 -17 -9 7 -7 15 1 24 5 22 9 -3 4 -6 8 -7 7 -1
0 -11 -4 -22 -9z"/>
<path d="M7909 11947 c6 -8 7 -18 3 -22 -4 -5 -1 -5 6 -1 10 6 10 11 1 22 -6
8 -14 14 -16 14 -3 0 0 -6 6 -13z"/>
<path d="M14514 11928 c-4 -5 -3 -12 0 -15 3 -4 6 -1 6 6 0 7 4 10 9 6 5 -3
12 -2 15 3 3 5 -2 9 -10 9 -8 0 -17 -4 -20 -9z"/>
<path d="M14500 11872 c0 -5 7 -9 15 -9 8 0 15 4 15 9 0 4 -7 8 -15 8 -8 0
-15 -4 -15 -8z"/>
<path d="M14523 11733 c-7 -2 -13 -9 -13 -15 0 -7 5 -7 13 1 8 6 18 7 22 3 5
-4 5 -1 1 6 -4 6 -8 12 -9 11 -1 0 -8 -3 -14 -6z"/>
<path d="M7865 11719 c-8 -12 0 -22 20 -25 12 -2 12 2 5 17 -12 22 -16 23 -25
8z"/>
<path d="M14513 11664 c1 -21 19 -26 34 -9 4 4 3 5 -4 1 -6 -3 -16 2 -22 11
-9 16 -10 16 -8 -3z"/>
<path d="M7806 11657 c3 -10 9 -15 12 -12 3 3 0 11 -7 18 -10 9 -11 8 -5 -6z"/>
<path d="M7809 11628 c-6 -23 -7 -48 -1 -52 4 -2 7 9 7 25 1 24 -2 38 -6 27z"/>
<path d="M7893 11607 c-3 -6 -1 -7 5 -3 11 7 17 -7 12 -29 -1 -5 2 -7 6 -2 13
13 11 44 -3 44 -8 0 -17 -5 -20 -10z"/>
<path d="M14516 11605 c-11 -8 -15 -15 -9 -15 7 0 15 5 18 10 4 6 11 7 17 4 7
-4 8 -2 4 4 -9 14 -7 15 -30 -3z"/>
<path d="M14510 11548 c0 -4 4 -8 9 -8 6 0 12 4 15 8 3 5 -1 9 -9 9 -8 0 -15
-4 -15 -9z"/>
<path d="M7894 11509 c-3 -6 -1 -16 5 -22 9 -9 10 -7 5 7 -6 15 -4 17 6 11 9
-5 11 -4 6 3 -9 15 -13 15 -22 1z"/>
<path d="M14530 11490 c0 -5 5 -10 11 -10 5 0 7 5 4 10 -3 6 -8 10 -11 10 -2
0 -4 -4 -4 -10z"/>
<path d="M7813 11425 c0 -8 4 -12 9 -9 4 3 8 9 8 15 0 5 -4 9 -8 9 -5 0 -9 -7
-9 -15z"/>
<path d="M7893 11394 c-7 -20 12 -41 22 -23 6 8 4 10 -5 4 -10 -6 -12 -3 -8
13 7 25 0 30 -9 6z"/>
<path d="M7814 11375 c0 -13 3 -22 7 -19 8 4 6 30 -2 38 -3 3 -5 -5 -5 -19z"/>
<path d="M14510 11356 c0 -2 7 -7 16 -10 8 -3 12 -2 9 4 -6 10 -25 14 -25 6z"/>
<path d="M7824 11310 c0 -10 6 -16 13 -13 7 3 13 9 13 13 0 4 -6 10 -13 13 -7
3 -13 -3 -13 -13z"/>
<path d="M7914 11275 c0 -13 3 -22 7 -19 8 4 6 30 -2 38 -3 3 -5 -5 -5 -19z"/>
<path d="M14510 11253 c0 -5 5 -15 10 -23 7 -12 9 -10 7 8 -1 19 -17 33 -17
15z"/>
<path d="M7917 11226 c-17 -13 -17 -14 0 -20 10 -4 14 -4 10 0 -4 4 -2 13 4
21 14 17 9 16 -14 -1z"/>
<path d="M14480 11236 c0 -2 7 -9 15 -16 13 -11 14 -10 9 4 -5 14 -24 23 -24
12z"/>
<path d="M14523 11173 c-7 -2 -13 -9 -13 -15 0 -7 5 -7 13 1 8 6 18 7 22 3 5
-4 5 -1 1 6 -4 6 -8 12 -9 11 -1 0 -8 -3 -14 -6z"/>
<path d="M7910 11156 c0 -2 7 -7 16 -10 8 -3 12 -2 9 4 -6 10 -25 14 -25 6z"/>
<path d="M7900 11136 c0 -2 7 -7 16 -10 8 -3 12 -2 9 4 -6 10 -25 14 -25 6z"/>
<path d="M7900 11114 c0 -5 9 -15 20 -21 15 -10 21 -10 26 0 4 6 3 9 -1 4 -5
-4 -17 0 -27 10 -10 9 -18 12 -18 7z"/>
<path d="M14510 11013 c0 -5 5 -15 10 -23 7 -12 9 -10 7 8 -1 19 -17 33 -17
15z"/>
<path d="M7910 11001 c0 -6 4 -12 8 -15 5 -3 9 1 9 9 0 8 -4 15 -9 15 -4 0 -8
-4 -8 -9z"/>
<path d="M7936 10963 c-6 -14 -5 -15 5 -6 7 7 10 15 7 18 -3 3 -9 -2 -12 -12z"/>
<path d="M7950 10910 c0 -5 5 -10 11 -10 5 0 7 5 4 10 -3 6 -8 10 -11 10 -2 0
-4 -4 -4 -10z"/>
<path d="M14526 10908 c3 -5 10 -6 15 -3 13 9 11 12 -6 12 -8 0 -12 -4 -9 -9z"/>
<path d="M7870 10870 c0 -5 5 -10 10 -10 6 0 10 5 10 10 0 6 -4 10 -10 10 -5
0 -10 -4 -10 -10z"/>
<path d="M7935 10850 c3 -5 8 -10 11 -10 2 0 4 5 4 10 0 6 -5 10 -11 10 -5 0
-7 -4 -4 -10z"/>
<path d="M7927 10801 c-10 -14 -10 -14 4 -4 10 9 19 9 26 2 6 -6 10 -5 10 4 0
19 -25 17 -40 -2z"/>
<path d="M14510 10790 c-11 -7 -11 -10 -2 -10 7 0 11 -4 8 -8 -3 -5 1 -9 9 -9
10 0 12 4 5 12 -5 7 -7 15 -3 18 9 10 0 8 -17 -3z"/>
<path d="M7975 10770 c-3 -5 -1 -10 4 -10 6 0 11 5 11 10 0 6 -2 10 -4 10 -3
0 -8 -4 -11 -10z"/>
<path d="M7955 10741 c-3 -5 -2 -12 3 -15 5 -3 9 1 9 9 0 17 -3 19 -12 6z"/>
<path d="M14516 10729 c3 -5 0 -9 -6 -9 -6 0 -8 -5 -4 -11 5 -8 10 -6 16 5 5
9 15 13 21 10 7 -4 8 -3 4 1 -10 12 -38 15 -31 4z"/>
<path d="M7976 10663 c-6 -14 -5 -15 5 -6 7 7 10 15 7 18 -3 3 -9 -2 -12 -12z"/>
<path d="M7937 10663 c-4 -3 -7 -11 -7 -17 0 -6 5 -5 12 2 6 6 9 14 7 17 -3 3
-9 2 -12 -2z"/>
<path d="M14508 10648 c-9 -5 -6 -7 9 -5 12 2 25 6 28 8 8 9 -23 6 -37 -3z"/>
<path d="M7945 10630 c-3 -5 -2 -10 4 -10 5 0 13 5 16 10 3 6 2 10 -4 10 -5 0
-13 -4 -16 -10z"/>
<path d="M7995 10620 c-4 -6 -11 -7 -17 -4 -7 4 -8 2 -4 -5 6 -9 11 -9 22 0
14 11 18 19 10 19 -3 0 -8 -5 -11 -10z"/>
<path d="M14515 10590 c-3 -5 -1 -10 4 -10 6 0 11 5 11 10 0 6 -2 10 -4 10 -3
0 -8 -4 -11 -10z"/>
<path d="M7965 10570 c3 -5 11 -10 16 -10 6 0 7 5 4 10 -3 6 -11 10 -16 10 -6
0 -7 -4 -4 -10z"/>
<path d="M7997 10560 c-9 -11 -12 -20 -7 -20 6 0 13 7 16 15 4 8 11 12 17 8 6
-3 7 -1 3 5 -9 15 -9 15 -29 -8z"/>
<path d="M8010 10529 c0 -5 5 -7 10 -4 6 3 10 8 10 11 0 2 -4 4 -10 4 -5 0
-10 -5 -10 -11z"/>
<path d="M8025 10510 c-3 -6 1 -7 9 -4 18 7 21 14 7 14 -6 0 -13 -4 -16 -10z"/>
<path d="M14500 10508 c0 -4 7 -8 15 -8 8 0 15 4 15 8 0 5 -7 9 -15 9 -8 0
-15 -4 -15 -9z"/>
<path d="M8020 10486 c0 -2 7 -9 15 -16 9 -7 15 -8 15 -2 0 5 -7 12 -15 16 -8
3 -15 4 -15 2z"/>
<path d="M8054 10447 c-4 -7 -4 -9 1 -5 4 4 13 0 20 -8 11 -15 12 -15 12 -1 0
20 -24 30 -33 14z"/>
<path d="M8110 10375 c0 -7 30 -13 34 -7 3 4 -4 9 -15 9 -10 1 -19 0 -19 -2z"/>
<path d="M14515 10370 c-17 -8 -17 -9 7 -7 15 1 24 5 22 9 -3 4 -6 8 -7 7 -1
0 -11 -4 -22 -9z"/>
<path d="M14514 10328 c-4 -5 -3 -12 0 -15 3 -4 6 -1 6 6 0 7 4 10 9 6 5 -3
12 -2 15 3 3 5 -2 9 -10 9 -8 0 -17 -4 -20 -9z"/>
<path d="M14500 10272 c0 -5 7 -9 15 -9 8 0 15 4 15 9 0 4 -7 8 -15 8 -8 0
-15 -4 -15 -8z"/>
<path d="M14510 10156 c0 -2 7 -7 16 -10 8 -3 12 -2 9 4 -6 10 -25 14 -25 6z"/>
<path d="M14497 10139 c7 -7 15 -10 18 -7 3 3 -2 9 -12 12 -14 6 -15 5 -6 -5z"/>
<path d="M14505 10070 c-3 -5 -1 -10 4 -10 6 0 11 5 11 10 0 6 -2 10 -4 10 -3
0 -8 -4 -11 -10z"/>
<path d="M14526 9968 c3 -5 10 -6 15 -3 13 9 11 12 -6 12 -8 0 -12 -4 -9 -9z"/>
<path d="M14508 9883 c7 -3 16 -2 19 1 4 3 -2 6 -13 5 -11 0 -14 -3 -6 -6z"/>
<path d="M14530 9850 c0 -5 5 -10 11 -10 5 0 7 5 4 10 -3 6 -8 10 -11 10 -2 0
-4 -4 -4 -10z"/>
<path d="M14515 9730 c-17 -8 -17 -9 7 -7 15 1 24 5 22 9 -3 4 -6 8 -7 7 -1 0
-11 -4 -22 -9z"/>
<path d="M14514 9688 c-4 -5 -3 -12 0 -15 3 -4 6 -1 6 6 0 7 4 10 9 6 5 -3 12
-2 15 3 3 5 -2 9 -10 9 -8 0 -17 -4 -20 -9z"/>
<path d="M14500 9632 c0 -5 7 -9 15 -9 8 0 15 4 15 9 0 4 -7 8 -15 8 -8 0 -15
-4 -15 -8z"/>
<path d="M7590 9510 c0 -5 5 -10 11 -10 5 0 7 5 4 10 -3 6 -8 10 -11 10 -2 0
-4 -4 -4 -10z"/>
<path d="M14510 9516 c0 -2 7 -7 16 -10 8 -3 12 -2 9 4 -6 10 -25 14 -25 6z"/>
<path d="M14497 9499 c7 -7 15 -10 18 -7 3 3 -2 9 -12 12 -14 6 -15 5 -6 -5z"/>
<path d="M14505 9430 c-3 -5 -1 -10 4 -10 6 0 11 5 11 10 0 6 -2 10 -4 10 -3
0 -8 -4 -11 -10z"/>
<path d="M14526 9328 c3 -5 10 -6 15 -3 13 9 11 12 -6 12 -8 0 -12 -4 -9 -9z"/>
<path d="M14508 9243 c7 -3 16 -2 19 1 4 3 -2 6 -13 5 -11 0 -14 -3 -6 -6z"/>
<path d="M7920 9210 c8 -5 20 -10 25 -10 6 0 3 5 -5 10 -8 5 -19 10 -25 10 -5
0 -3 -5 5 -10z"/>
<path d="M14530 9210 c0 -5 5 -10 11 -10 5 0 7 5 4 10 -3 6 -8 10 -11 10 -2 0
-4 -4 -4 -10z"/>
<path d="M8017 9155 c3 -8 9 -12 14 -9 12 7 11 11 -5 17 -10 4 -13 1 -9 -8z"/>
<path d="M14510 9116 c0 -2 7 -7 16 -10 8 -3 12 -2 9 4 -6 10 -25 14 -25 6z"/>
<path d="M8090 9095 c0 -5 5 -17 10 -25 5 -8 10 -10 10 -5 0 6 -5 17 -10 25
-5 8 -10 11 -10 5z"/>
<path d="M8195 9040 c-3 -6 1 -7 9 -4 18 7 21 14 7 14 -6 0 -13 -4 -16 -10z"/>
<path d="M14510 9013 c0 -5 5 -15 10 -23 7 -12 9 -10 7 8 -1 19 -17 33 -17 15z"/>
<path d="M8286 8987 c3 -10 9 -15 12 -12 3 3 0 11 -7 18 -10 9 -11 8 -5 -6z"/>
<path d="M14480 8996 c0 -2 7 -9 15 -16 13 -11 14 -10 9 4 -5 14 -24 23 -24
12z"/>
<path d="M8330 8975 c0 -5 5 -17 10 -25 5 -8 10 -10 10 -5 0 6 -5 17 -10 25
-5 8 -10 11 -10 5z"/>
<path d="M8383 8937 c0 -8 6 -14 14 -14 9 0 10 4 2 14 -6 7 -12 13 -14 13 -1
0 -2 -6 -2 -13z"/>
<path d="M8327 8929 c7 -7 15 -10 18 -7 3 3 -2 9 -12 12 -14 6 -15 5 -6 -5z"/>
<path d="M14523 8933 c-7 -2 -13 -9 -13 -15 0 -7 5 -7 13 1 8 6 18 7 22 3 5
-4 5 -1 1 6 -4 6 -8 12 -9 11 -1 0 -8 -3 -14 -6z"/>
<path d="M8417 8915 c-4 -8 -3 -16 1 -19 4 -3 9 4 9 15 2 23 -3 25 -10 4z"/>
<path d="M8440 8906 c0 -8 4 -17 9 -20 5 -4 7 3 4 14 -6 23 -13 26 -13 6z"/>
<path d="M8476 8877 c-16 -12 -16 -14 -3 -14 9 0 18 6 21 14 3 7 4 13 3 13 -2
0 -11 -6 -21 -13z"/>
<path d="M8596 8832 c-2 -4 -1 -14 4 -22 7 -11 9 -9 7 8 -1 24 -3 26 -11 14z"/>
<path d="M8627 8819 c7 -7 15 -10 18 -7 3 3 -2 9 -12 12 -14 6 -15 5 -6 -5z"/>
<path d="M8573 8805 c0 -8 4 -12 9 -9 5 3 6 10 3 15 -9 13 -12 11 -12 -6z"/>
<path d="M8656 8802 c-2 -4 -1 -14 4 -22 7 -11 9 -9 7 8 -1 24 -3 26 -11 14z"/>
<path d="M8615 8770 c3 -5 8 -10 11 -10 2 0 4 5 4 10 0 6 -5 10 -11 10 -5 0
-7 -4 -4 -10z"/>
<path d="M14515 8770 c-17 -8 -17 -9 7 -7 15 1 24 5 22 9 -3 4 -6 8 -7 7 -1 0
-11 -4 -22 -9z"/>
<path d="M14514 8728 c-4 -5 -3 -12 0 -15 3 -4 6 -1 6 6 0 7 4 10 9 6 5 -3 12
-2 15 3 3 5 -2 9 -10 9 -8 0 -17 -4 -20 -9z"/>
<path d="M8796 8716 c10 -8 21 -12 24 -10 5 6 -21 24 -34 24 -6 0 -1 -6 10
-14z"/>
<path d="M8833 8705 c0 -8 4 -12 9 -9 4 3 8 9 8 15 0 5 -4 9 -8 9 -5 0 -9 -7
-9 -15z"/>
<path d="M8854 8685 c-4 -8 -11 -12 -17 -8 -6 3 -7 1 -3 -5 10 -16 14 -15 26
8 6 11 8 20 5 20 -3 0 -8 -7 -11 -15z"/>
<path d="M8970 8671 c0 -11 9 -23 20 -26 17 -5 18 -10 9 -28 -9 -16 -4 -14 17
8 16 17 25 32 19 34 -5 2 -14 9 -18 15 -5 6 -5 0 -2 -12 6 -22 5 -23 -14 -13
-12 7 -21 16 -21 22 0 6 5 7 12 3 7 -4 8 -3 4 4 -11 18 -26 14 -26 -7z"/>
<path d="M14500 8672 c0 -5 7 -9 15 -9 8 0 15 4 15 9 0 4 -7 8 -15 8 -8 0 -15
-4 -15 -8z"/>
<path d="M9057 8646 c-4 -9 2 -11 19 -8 15 3 24 0 24 -8 0 -7 -7 -10 -16 -6
-8 3 -12 2 -9 -4 10 -16 24 -11 36 13 6 12 8 19 4 15 -4 -4 -17 -3 -30 2 -16
6 -25 5 -28 -4z"/>
<path d="M9146 8626 c3 -9 11 -16 17 -16 6 0 3 -6 -8 -13 -14 -11 -15 -16 -5
-22 8 -5 11 -4 7 2 -4 6 1 14 10 18 10 3 19 1 21 -4 5 -16 19 -13 19 3 0 8 -3
15 -6 14 -21 -2 -31 4 -25 15 4 6 4 9 -1 5 -4 -4 -14 -3 -22 4 -11 8 -12 7 -7
-6z"/>
<path d="M9027 8617 c-3 -7 5 -12 19 -12 29 0 29 1 5 14 -14 8 -20 7 -24 -2z"/>
<path d="M9126 8616 c4 -12 4 -17 -2 -13 -6 3 -16 1 -24 -5 -12 -8 -12 -9 3
-4 10 3 17 0 17 -7 0 -7 5 -4 11 6 8 14 8 22 -1 30 -8 9 -9 7 -4 -7z"/>
<path d="M9174 8572 c3 -5 1 -12 -6 -14 -8 -3 -9 -6 -1 -11 6 -4 13 0 17 8 3
8 0 17 -6 21 -6 4 -8 3 -4 -4z"/>
<path d="M14523 8533 c-7 -2 -13 -9 -13 -15 0 -7 5 -7 13 1 8 6 18 7 22 3 5
-4 5 -1 1 6 -4 6 -8 12 -9 11 -1 0 -8 -3 -14 -6z"/>
<path d="M14513 8464 c1 -21 19 -26 34 -9 4 4 3 5 -4 1 -6 -3 -16 2 -22 11 -9
16 -10 16 -8 -3z"/>
<path d="M10213 8436 c1 -6 -6 -10 -15 -10 -17 2 -17 -21 0 -52 8 -15 10 -15
15 0 4 10 3 15 -2 12 -5 -3 -12 1 -15 10 -4 11 -2 15 8 11 7 -3 19 0 25 6 8 8
14 8 23 -1 9 -9 15 -9 27 1 12 10 14 9 8 -6 -4 -10 -7 -21 -7 -23 0 -3 -5 -2
-11 2 -8 4 -8 1 -1 -12 5 -11 7 -24 5 -31 -2 -6 1 -15 8 -19 8 -4 9 -3 5 5 -4
6 -2 19 6 28 9 12 9 15 1 9 -17 -10 -16 3 3 34 l15 25 -7 -24 c-5 -19 -3 -23
10 -18 8 3 18 2 21 -3 3 -5 -3 -11 -12 -13 -16 -4 -16 -5 -1 -6 9 0 26 10 36
24 11 14 23 21 26 16 4 -5 2 -12 -4 -16 -18 -11 -11 -24 11 -20 15 3 19 0 15
-11 -3 -9 -2 -12 5 -9 6 4 8 13 5 20 -3 8 2 19 11 27 14 11 15 10 9 -12 -6
-21 -5 -23 6 -10 7 9 19 15 26 14 6 -1 17 -2 23 -3 5 0 7 -7 3 -13 -5 -9 -2
-8 10 1 15 13 18 12 23 -7 3 -12 10 -22 15 -22 5 0 6 4 3 10 -3 5 -8 19 -10
31 -3 16 0 19 12 15 8 -4 22 -1 29 5 17 14 18 -2 2 -20 -10 -11 -10 -13 0 -7
12 7 16 -4 13 -31 -1 -7 3 -13 8 -13 5 0 7 12 5 27 -5 25 -4 26 13 11 10 -8
24 -13 32 -10 8 3 11 0 7 -7 -4 -6 -2 -11 4 -11 17 0 6 25 -11 26 -31 3 -33 5
-20 13 17 11 66 -10 74 -31 3 -8 6 -6 6 5 1 9 -3 17 -8 17 -5 0 -8 11 -7 24 2
17 -1 23 -10 19 -8 -3 -17 3 -20 12 -5 13 -9 14 -15 3 -8 -11 -10 -11 -18 0
-7 11 -9 11 -14 -2 -4 -9 -12 -16 -18 -16 -8 0 -8 4 -1 13 9 10 -13 12 -111
12 -67 -1 -127 3 -134 7 -6 5 -14 4 -18 -2 -5 -8 -10 -8 -20 0 -9 8 -15 8 -20
0 -3 -6 -12 -7 -18 -3 -19 12 -66 11 -64 -1z m65 -5 c2 -1 0 -6 -3 -11 -5 -8
-11 -7 -21 1 -11 9 -18 8 -31 -2 -16 -13 -17 -12 -4 3 11 15 25 17 59 9z m57
-1 c4 7 12 7 18 2 7 -4 63 -8 125 -7 98 1 110 -1 98 -14 -12 -12 -18 -12 -30
-1 -16 12 -21 5 -17 -22 1 -8 -20 -5 -36 5 -7 5 -17 6 -21 3 -4 -2 -14 -1 -22
4 -10 6 -22 2 -39 -13 -19 -17 -23 -18 -18 -5 6 17 -6 31 -31 34 -8 2 -11 -3
-8 -11 6 -17 -10 -30 -19 -15 -4 6 -10 8 -15 5 -4 -3 -7 3 -6 13 0 9 -5 16
-12 14 -8 -1 -11 2 -7 8 5 8 11 8 20 0 10 -8 15 -8 20 0z m342 -33 c11 -11 13
-17 5 -17 -7 0 -12 4 -12 9 0 4 -10 7 -22 6 -13 -1 -23 -3 -23 -4 0 -2 -8 -4
-18 -6 -17 -3 -17 -2 -3 14 20 21 51 21 73 -2z"/>
<path d="M10390 8415 c0 -7 30 -13 34 -7 3 4 -4 9 -15 9 -10 1 -19 0 -19 -2z"/>
<path d="M10456 8408 c3 -5 10 -6 15 -3 13 9 11 12 -6 12 -8 0 -12 -4 -9 -9z"/>
<path d="M10510 8411 c0 -7 -5 -9 -12 -5 -7 5 -8 3 -3 -5 5 -9 10 -10 18 -2 6
6 8 14 4 18 -4 3 -7 1 -7 -6z"/>
<path d="M14516 8405 c-11 -8 -15 -15 -9 -15 7 0 15 5 18 10 4 6 11 7 17 4 7
-4 8 -2 4 4 -9 14 -7 15 -30 -3z"/>
<path d="M10230 8400 c0 -5 5 -10 10 -10 6 0 10 5 10 10 0 6 -4 10 -10 10 -5
0 -10 -4 -10 -10z"/>
<path d="M10226 8372 c-2 -4 4 -8 14 -8 10 0 16 4 14 8 -3 4 -9 8 -14 8 -5 0
-11 -4 -14 -8z"/>
<path d="M10550 8371 c0 -10 19 -25 25 -20 1 2 -3 10 -11 17 -8 7 -14 8 -14 3z"/>
<path d="M10455 8360 c-3 -6 1 -7 9 -4 18 7 21 14 7 14 -6 0 -13 -4 -16 -10z"/>
<path d="M14510 8348 c0 -4 4 -8 9 -8 6 0 12 4 15 8 3 5 -1 9 -9 9 -8 0 -15
-4 -15 -9z"/>
<path d="M10472 8341 c-11 -7 -11 -9 0 -14 9 -3 15 1 15 9 0 8 -1 14 -1 14 -1
0 -7 -4 -14 -9z"/>
<path d="M10430 8329 c0 -5 5 -7 10 -4 6 3 10 8 10 11 0 2 -4 4 -10 4 -5 0
-10 -5 -10 -11z"/>
<path d="M10687 8329 c7 -7 15 -10 18 -7 3 3 -2 9 -12 12 -14 6 -15 5 -6 -5z"/>
<path d="M10750 8330 c0 -5 5 -10 11 -10 5 0 7 5 4 10 -3 6 -8 10 -11 10 -2 0
-4 -4 -4 -10z"/>
<path d="M14530 8290 c0 -5 5 -10 11 -10 5 0 7 5 4 10 -3 6 -8 10 -11 10 -2 0
-4 -4 -4 -10z"/>
<path d="M14510 8156 c0 -2 7 -7 16 -10 8 -3 12 -2 9 4 -6 10 -25 14 -25 6z"/>
<path d="M14510 8053 c0 -5 5 -15 10 -23 7 -12 9 -10 7 8 -1 19 -17 33 -17 15z"/>
<path d="M14480 8036 c0 -2 7 -9 15 -16 13 -11 14 -10 9 4 -5 14 -24 23 -24
12z"/>
<path d="M14523 7973 c-7 -2 -13 -9 -13 -15 0 -7 5 -7 13 1 8 6 18 7 22 3 5
-4 5 -1 1 6 -4 6 -8 12 -9 11 -1 0 -8 -3 -14 -6z"/>
<path d="M14533 7915 c0 -8 4 -12 9 -9 5 3 6 10 3 15 -9 13 -12 11 -12 -6z"/>
<path d="M14450 7830 c0 -5 5 -10 10 -10 6 0 10 5 10 10 0 6 -4 10 -10 10 -5
0 -10 -4 -10 -10z"/>
<path d="M14516 7825 c-11 -8 -15 -15 -9 -15 6 0 16 7 23 15 16 19 11 19 -14
0z"/>
<path d="M14516 7744 c-8 -20 -8 -24 2 -24 4 0 8 9 9 20 2 24 -3 26 -11 4z"/>
<path d="M14510 7701 c0 -6 4 -13 10 -16 6 -3 7 1 4 9 -7 18 -14 21 -14 7z"/>
<path d="M14510 6773 c0 -5 5 -15 10 -23 7 -12 9 -10 7 8 -1 19 -17 33 -17 15z"/>
<path d="M14480 6756 c0 -2 7 -9 15 -16 13 -11 14 -10 9 4 -5 14 -24 23 -24
12z"/>
<path d="M14523 6693 c-7 -2 -13 -9 -13 -15 0 -7 5 -7 13 1 8 6 18 7 22 3 5
-4 5 -1 1 6 -4 6 -8 12 -9 11 -1 0 -8 -3 -14 -6z"/>
<path d="M14459 6639 c-12 -8 -12 -10 0 -18 15 -10 41 -4 41 9 0 13 -26 19
-41 9z"/>
<path d="M14530 6646 c0 -2 8 -10 18 -17 15 -13 16 -12 3 4 -13 16 -21 21 -21
13z"/>
<path d="M14510 6613 c0 -5 5 -15 10 -23 7 -12 9 -10 7 8 -1 19 -17 33 -17 15z"/>
<path d="M13504 6460 c0 -13 4 -16 10 -10 7 7 7 13 0 20 -6 6 -10 3 -10 -10z"/>
<path d="M14501 6443 c-1 -17 16 -25 25 -12 4 7 3 9 -4 5 -5 -3 -13 0 -15 6
-4 9 -6 10 -6 1z"/>
<path d="M13604 6409 c-19 -22 -19 -22 4 -8 12 8 22 17 22 21 0 12 -6 9 -26
-13z"/>
<path d="M14149 6413 c-13 -17 -13 -17 6 -3 11 8 22 16 24 17 2 2 0 3 -6 3 -6
0 -17 -8 -24 -17z"/>
<path d="M14211 6423 c-1 -17 16 -25 25 -12 4 7 3 9 -4 5 -5 -3 -13 0 -15 6
-4 9 -6 10 -6 1z"/>
<path d="M13496 6412 c-3 -5 1 -9 9 -9 8 0 12 4 9 9 -3 4 -7 8 -9 8 -2 0 -6
-4 -9 -8z"/>
<path d="M14110 6410 c0 -5 5 -10 10 -10 6 0 10 5 10 10 0 6 -4 10 -10 10 -5
0 -10 -4 -10 -10z"/>
<path d="M14310 6409 c-12 -8 -10 -9 9 -4 17 5 22 4 16 -5 -5 -9 -4 -11 4 -6
6 4 9 12 6 17 -8 12 -16 11 -35 -2z"/>
<path d="M13730 6401 c0 -7 -5 -9 -12 -5 -7 5 -8 3 -3 -5 5 -9 10 -10 18 -2 6
6 8 14 4 18 -4 3 -7 1 -7 -6z"/>
<path d="M14010 6401 c0 -6 4 -13 10 -16 6 -3 7 1 4 9 -7 18 -14 21 -14 7z"/>
<path d="M14170 6400 c-9 -6 -10 -10 -3 -10 6 0 15 5 18 10 8 12 4 12 -15 0z"/>
<path d="M14079 6383 c-13 -16 -12 -17 4 -4 9 7 17 15 17 17 0 8 -8 3 -21 -13z"/>
<path d="M14250 6389 c0 -5 5 -7 10 -4 6 3 10 8 10 11 0 2 -4 4 -10 4 -5 0
-10 -5 -10 -11z"/>
</g>
</svg>
