<svg width="35" height="35" viewBox="0 0 35 35" fill="none" xmlns="http://www.w3.org/2000/svg">
<path d="M20.1543 32.0832H14.8459C14.5133 32.0832 14.1907 31.9696 13.9316 31.7611C13.6724 31.5526 13.4923 31.2618 13.4211 30.9369L12.8276 28.1894C12.0358 27.8425 11.285 27.4086 10.5891 26.8959L7.9101 27.749C7.593 27.8501 7.25086 27.8397 6.94048 27.7196C6.6301 27.5994 6.37017 27.3767 6.20385 27.0884L3.54385 22.4932C3.37927 22.2046 3.31749 21.8687 3.36862 21.5405C3.41974 21.2123 3.58075 20.9111 3.8253 20.6863L5.90343 18.7905C5.80892 17.9317 5.80892 17.0651 5.90343 16.2063L3.8253 14.3148C3.58041 14.0899 3.41918 13.7885 3.36804 13.4599C3.3169 13.1314 3.37889 12.7952 3.54385 12.5065L6.19801 7.90838C6.36434 7.62009 6.62427 7.39737 6.93465 7.27719C7.24502 7.15702 7.58717 7.14663 7.90426 7.24775L10.5832 8.10088C10.9391 7.83838 11.3095 7.59338 11.6916 7.37171C12.0605 7.16463 12.4397 6.9765 12.8276 6.8088L13.4226 4.06421C13.4934 3.73929 13.6732 3.44834 13.9321 3.2396C14.1909 3.03085 14.5134 2.91685 14.8459 2.9165H20.1543C20.4868 2.91685 20.8093 3.03085 21.0681 3.2396C21.327 3.44834 21.5068 3.73929 21.5776 4.06421L22.1784 6.81025C22.9698 7.15719 23.7201 7.59104 24.4155 8.1038L27.0959 7.25067C27.4128 7.14992 27.7546 7.1605 28.0647 7.28066C28.3748 7.40081 28.6345 7.62332 28.8007 7.9113L31.4549 12.5094C31.7932 13.103 31.6766 13.854 31.1734 14.3163L29.0953 16.2121C29.1898 17.0709 29.1898 17.9375 29.0953 18.7963L31.1734 20.6921C31.6766 21.1559 31.7932 21.9055 31.4549 22.499L28.8007 27.0971C28.6344 27.3854 28.3745 27.6081 28.0641 27.7283C27.7537 27.8485 27.4116 27.8589 27.0945 27.7578L24.4155 26.9046C23.7201 27.417 22.9698 27.8504 22.1784 28.1967L21.5776 30.9369C21.5065 31.2616 21.3266 31.5522 21.0677 31.7607C20.8089 31.9691 20.4866 32.0829 20.1543 32.0832ZM11.1126 23.6671L12.3084 24.5421C12.5782 24.7405 12.8582 24.9228 13.1499 25.089C13.4241 25.248 13.7041 25.3909 13.9943 25.5207L15.3549 26.1171L16.0213 29.1665H18.9818L19.6482 26.1157L21.0088 25.5192C21.6024 25.2567 22.1668 24.9315 22.6903 24.548L23.8861 23.673L26.8641 24.6209L28.3443 22.0571L26.0357 19.9528L26.1991 18.4769C26.272 17.8309 26.272 17.179 26.1991 16.5344L26.0357 15.0586L28.3457 12.9498L26.8641 10.3846L23.8876 11.3325L22.6903 10.4575C22.1665 10.0721 21.6028 9.74403 21.0088 9.479L19.6482 8.88255L18.9818 5.83317H16.0213L15.3505 8.884L13.9943 9.479C13.3995 9.73948 12.8356 10.0652 12.3128 10.4503L11.1155 11.3253L8.14051 10.3773L6.65739 12.9498L8.96593 15.0513L8.8026 16.5286C8.72968 17.1746 8.72968 17.8265 8.8026 18.4711L8.96593 19.9469L6.65739 22.0513L8.1376 24.615L11.1126 23.6671ZM17.4943 23.3332C15.9472 23.3332 14.4634 22.7186 13.3695 21.6246C12.2755 20.5307 11.6609 19.0469 11.6609 17.4998C11.6609 15.9527 12.2755 14.469 13.3695 13.375C14.4634 12.2811 15.9472 11.6665 17.4943 11.6665C19.0414 11.6665 20.5251 12.2811 21.6191 13.375C22.713 14.469 23.3276 15.9527 23.3276 17.4998C23.3276 19.0469 22.713 20.5307 21.6191 21.6246C20.5251 22.7186 19.0414 23.3332 17.4943 23.3332ZM17.4943 14.5832C16.9231 14.5838 16.3647 14.752 15.8883 15.0671C15.4119 15.3821 15.0385 15.8301 14.8144 16.3555C14.5903 16.8808 14.5254 17.4604 14.6277 18.0223C14.73 18.5842 14.9951 19.1037 15.3899 19.5164C15.7848 19.929 16.2922 20.2166 16.849 20.3436C17.4059 20.4705 17.9878 20.4311 18.5225 20.2304C19.0572 20.0296 19.5212 19.6763 19.8569 19.2142C20.1926 18.7521 20.3852 18.2017 20.4109 17.6311V18.2144V17.4998C20.4109 16.7263 20.1036 15.9844 19.5567 15.4374C19.0097 14.8905 18.2678 14.5832 17.4943 14.5832Z" fill="#263238"/>
</svg>
