<svg width="35" height="35" viewBox="0 0 35 35" fill="#253238" xmlns="http://www.w3.org/2000/svg">
<path d="M6.26079 15.6143L16.4691 5.40598C16.7426 5.13259 17.1135 4.979 17.5002 4.979C17.8869 4.979 18.2577 5.13259 18.5312 5.40598L28.7395 15.6143C29.013 15.8877 29.1667 16.2586 29.1668 16.6454V30.6249C29.1668 31.0117 29.0132 31.3827 28.7397 31.6561C28.4662 31.9296 28.0953 32.0833 27.7085 32.0833H20.4168V21.8749H14.5835V32.0833H7.29183C6.90506 32.0833 6.53412 31.9296 6.26063 31.6561C5.98714 31.3827 5.8335 31.0117 5.8335 30.6249V16.6454C5.83358 16.2586 5.98728 15.8877 6.26079 15.6143Z" fill="#253238"/>
</svg>
