<svg width="35" height="35" viewBox="0 0 35 35" fill="none" xmlns="http://www.w3.org/2000/svg">
<path d="M30.1123 10.9824C29.8844 10.9368 29.7135 10.914 29.5996 10.914C28.7565 10.914 28.0273 11.1991 27.4121 11.7693C26.0221 11.1535 24.7233 10.6517 23.5156 10.2639C21.5332 9.62529 19.4596 9.10068 17.2949 8.69013C17.0898 8.14272 16.7822 7.68654 16.3721 7.3216C16.9417 4.63017 17.7051 2.18964 18.6621 0C21.5332 0.205279 24.1707 1.0378 26.5747 2.49756C28.9787 3.95732 30.9212 5.87325 32.4023 8.24536C31.5592 9.15771 30.7959 10.0701 30.1123 10.9824ZM14.2529 6.5347C13.6605 6.5347 13.1022 6.69436 12.5781 7.01369C10.7324 5.64516 8.87533 4.48192 7.00684 3.52395C9.83236 1.37993 12.9997 0.205279 16.5088 0C15.6201 1.98436 14.9023 4.16259 14.3555 6.5347H14.2529ZM2.39258 8.65591C3.16732 7.35582 4.14714 6.12415 5.33203 4.9609C6.88151 5.75921 8.48796 6.73998 10.1514 7.90323C7.21191 7.8348 4.62565 8.0857 2.39258 8.65591ZM10.9717 10.0244C11.0173 10.7315 11.2622 11.353 11.7065 11.8891C12.1509 12.4251 12.7035 12.7843 13.3643 12.9668C13.2275 14.5634 13.1592 16.0802 13.1592 17.5171C13.1592 18.5207 13.1934 19.6725 13.2617 20.9726C12.7604 21.1323 12.3161 21.406 11.9287 21.7937C10.6982 21.3148 9.51335 20.7674 8.37402 20.1515C8.62467 19.6497 8.75 19.1365 8.75 18.6119C8.75 17.6996 8.43099 16.9241 7.79297 16.2854C7.15495 15.6468 6.38021 15.3275 5.46875 15.3275C4.46615 15.3275 3.63444 15.7152 2.97363 16.4907C2.0166 15.624 1.16211 14.723 0.410156 13.7879C0.615234 12.8071 0.922852 11.8377 1.33301 10.8798C4.11296 10.1043 7.32585 9.81916 10.9717 10.0244ZM2.22168 18.8856C2.29004 19.7296 2.63753 20.4423 3.26416 21.024C3.89079 21.6056 4.62565 21.8964 5.46875 21.8964C5.7194 21.8964 5.99284 21.8508 6.28906 21.7595C7.7474 22.6035 9.30827 23.3333 10.9717 23.9492V24.086C10.9717 24.9756 11.2736 25.734 11.8774 26.3612C12.4813 26.9884 13.2275 27.3249 14.1162 27.3705C14.6859 30.1531 15.4834 32.6963 16.5088 35C14.2301 34.8631 12.0768 34.31 10.0488 33.3407C8.02083 32.3713 6.27197 31.1111 4.80225 29.5601C3.33252 28.0091 2.16471 26.1844 1.29883 24.086C0.432943 21.9876 0 19.798 0 17.5171C0 17.4943 0.0113932 17.1864 0.0341797 16.5934C0.672201 17.3917 1.40137 18.1558 2.22168 18.8856ZM17.124 25.6256C18.7646 25.9221 20.4167 26.116 22.0801 26.2072C22.2396 26.6634 22.4902 27.0854 22.832 27.4731C22.3079 29.868 21.9889 32.1945 21.875 34.4526C20.7129 34.7491 19.6419 34.9316 18.6621 35C17.5911 32.5595 16.7594 29.7996 16.167 26.7204C16.5771 26.4467 16.8962 26.0818 17.124 25.6256ZM27.7197 27.2678C28.016 26.9029 28.221 26.5152 28.335 26.1046C29.9984 25.9677 31.6048 25.7511 33.1543 25.4545C32.0605 27.5986 30.5566 29.4575 28.6426 31.0313C28.4375 29.8452 28.1299 28.5907 27.7197 27.2678ZM22.1484 24.0176C20.5534 23.9264 18.9811 23.7211 17.4316 23.4018C17.181 22.2613 16.5316 21.4744 15.4834 21.0411C15.3923 19.6953 15.3467 18.5207 15.3467 17.5171C15.3467 16.0117 15.415 14.4493 15.5518 12.8299C15.5973 12.8299 15.6543 12.8071 15.7227 12.7615C15.791 12.7159 15.8366 12.6931 15.8594 12.6931C16.748 13.5598 17.5228 14.3581 18.1836 15.088C20.166 17.2776 21.8522 19.7638 23.2422 22.5464C22.7409 22.9342 22.3763 23.4246 22.1484 24.0176ZM25.1904 28.4653C25.236 28.4653 25.3613 28.4539 25.5664 28.4311C25.9538 29.8224 26.2386 31.2023 26.4209 32.5709C25.7601 32.9586 24.9626 33.3464 24.0283 33.7341C24.1878 31.955 24.4613 30.1874 24.8486 28.4311C25.0309 28.4539 25.1449 28.4653 25.1904 28.4653ZM25.0195 20.2884C24.9967 20.334 24.9683 20.4024 24.9341 20.4936C24.8999 20.5849 24.8714 20.6533 24.8486 20.6989C23.4131 18.0987 21.7269 15.738 19.79 13.6168C19.0837 12.8185 18.2406 11.9518 17.2607 11.0166C17.2835 11.0166 17.3006 10.9995 17.312 10.9653L17.3291 10.914C19.2432 11.3017 21.0775 11.7807 22.832 12.3509C23.903 12.6931 25.0765 13.1492 26.3525 13.7195C26.307 13.9475 26.2842 14.1186 26.2842 14.2326C26.2842 14.9169 26.4893 15.5442 26.8994 16.1144C26.1475 17.5513 25.5208 18.9427 25.0195 20.2884ZM26.626 22.2727C26.8994 21.4744 27.0361 21.0639 27.0361 21.0411C27.4919 19.9006 28.0615 18.6804 28.7451 17.3803C29.0413 17.4715 29.3262 17.5171 29.5996 17.5171C30.3743 17.5171 31.0693 17.2548 31.6846 16.7302C32.8011 17.5057 33.8949 18.3724 34.9658 19.3304C34.8291 20.6305 34.5557 21.885 34.1455 23.0938C32.277 23.4816 30.306 23.7553 28.2324 23.915C27.9362 23.1851 27.4007 22.6377 26.626 22.2727ZM32.8809 14.1984C32.8809 13.4457 32.6302 12.7615 32.1289 12.1456C32.6074 11.5298 33.0859 10.971 33.5645 10.4692C34.3848 12.3395 34.8633 14.2669 35 16.2512C34.248 15.681 33.5189 15.1678 32.8125 14.7116C32.8581 14.5064 32.8809 14.3353 32.8809 14.1984Z" fill="#263238"/>
</svg>
