<?xml version="1.0" encoding="utf-8"?>
<svg viewBox="0 0 500 500" xmlns="http://www.w3.org/2000/svg">
  <path style="fill: #079ed7;" d="M 256.779 16.382 C 179.83 92.471 52.036 75.286 52.036 75.286 C 52.036 75.286 52.036 159.961 52.036 281.45 C 52.036 402.94 256.779 487.615 256.779 487.615 C 256.779 487.615 461.522 402.94 461.522 281.45 C 461.522 159.961 461.522 75.286 461.522 75.286 C 461.522 75.286 333.728 92.471 256.779 16.382 Z"/>
  <g transform="matrix(0.978097, 0, 0, 0.920376, -6.599525, 13.784176)" style=""/>
  <g transform="matrix(0.978097, 0, 0, 0.920376, -6.599525, 13.784176)" style=""/>
  <g transform="matrix(0.978097, 0, 0, 0.920376, -6.599525, 13.784176)" style=""/>
  <g transform="matrix(0.978097, 0, 0, 0.920376, -6.599525, 13.784176)" style=""/>
  <g transform="matrix(0.978097, 0, 0, 0.920376, -6.599525, 13.784176)" style=""/>
  <g transform="matrix(0.978097, 0, 0, 0.920376, -6.599525, 13.784176)" style=""/>
  <g transform="matrix(0.978097, 0, 0, 0.920376, -6.599525, 13.784176)" style=""/>
  <g transform="matrix(0.978097, 0, 0, 0.920376, -6.599525, 13.784176)" style=""/>
  <g transform="matrix(0.978097, 0, 0, 0.920376, -6.599525, 13.784176)" style=""/>
  <g transform="matrix(0.978097, 0, 0, 0.920376, -6.599525, 13.784176)" style=""/>
  <g transform="matrix(0.978097, 0, 0, 0.920376, -6.599525, 13.784176)" style=""/>
  <g transform="matrix(0.978097, 0, 0, 0.920376, -6.599525, 13.784176)" style=""/>
  <g transform="matrix(0.978097, 0, 0, 0.920376, -6.599525, 13.784176)" style=""/>
  <g transform="matrix(0.978097, 0, 0, 0.920376, -6.599525, 13.784176)" style=""/>
  <g transform="matrix(0.978097, 0, 0, 0.920376, -6.599525, 13.784176)" style=""/>
  <path d="M 325.421 195.484 C 324.138 195.236 323.177 195.114 322.535 195.114 C 317.79 195.114 313.688 196.644 310.227 199.707 C 302.405 196.402 295.093 193.709 288.296 191.625 C 277.141 188.202 265.47 185.384 253.285 183.179 C 252.131 180.245 250.404 177.798 248.096 175.838 C 251.299 161.4 255.597 148.301 260.984 136.55 C 277.141 137.654 291.982 142.119 305.511 149.954 C 319.04 157.789 329.975 168.069 338.31 180.797 C 333.565 185.69 329.265 190.585 325.421 195.484 Z M 236.166 171.616 C 232.835 171.616 229.693 172.475 226.744 174.186 C 216.356 166.846 205.905 160.599 195.387 155.46 C 211.291 143.954 229.114 137.654 248.862 136.55 C 243.865 147.202 239.824 158.888 236.745 171.616 L 236.166 171.616 Z M 169.421 182.997 C 173.782 176.02 179.296 169.416 185.96 163.17 C 194.683 167.458 203.722 172.716 213.087 178.962 C 196.54 178.591 181.987 179.939 169.421 182.997 Z M 217.701 190.343 C 217.96 194.138 219.338 197.471 221.837 200.346 C 224.337 203.223 227.448 205.154 231.169 206.129 C 230.397 214.7 230.015 222.839 230.015 230.546 C 230.015 235.932 230.205 242.114 230.588 249.09 C 227.769 249.947 225.27 251.412 223.087 253.495 C 216.164 250.925 209.496 247.989 203.08 244.684 C 204.492 241.991 205.196 239.238 205.196 236.421 C 205.196 231.526 203.4 227.363 199.809 223.94 C 196.22 220.512 191.864 218.799 186.731 218.799 C 181.092 218.799 176.41 220.88 172.69 225.04 C 167.305 220.387 162.498 215.553 158.265 210.535 C 159.42 205.272 161.147 200.072 163.455 194.932 C 179.1 190.771 197.182 189.243 217.701 190.343 Z M 168.458 237.891 C 168.84 242.42 170.799 246.245 174.328 249.362 C 177.851 252.485 181.987 254.048 186.731 254.048 C 188.144 254.048 189.68 253.801 191.346 253.312 C 199.557 257.841 208.342 261.758 217.701 265.064 L 217.701 265.793 C 217.701 270.569 219.4 274.638 222.799 278.006 C 226.199 281.37 230.397 283.174 235.4 283.42 C 238.603 298.348 243.093 311.998 248.862 324.356 C 236.041 323.622 223.919 320.654 212.507 315.454 C 201.093 310.255 191.251 303.488 182.983 295.165 C 174.71 286.844 168.137 277.057 163.264 265.793 C 158.39 254.535 155.953 242.784 155.953 230.546 C 155.953 230.427 156.021 228.774 156.15 225.593 C 159.741 229.875 163.843 233.973 168.458 237.891 Z M 252.323 274.057 C 261.558 275.644 270.855 276.685 280.219 277.18 C 281.114 279.627 282.527 281.891 284.446 283.968 C 281.498 296.82 279.702 309.306 279.06 321.421 C 272.52 323.009 266.493 323.992 260.984 324.356 C 254.957 311.264 250.275 296.453 246.937 279.932 C 249.249 278.463 251.045 276.504 252.323 274.057 Z M 311.955 282.867 C 313.62 280.91 314.774 278.831 315.416 276.627 C 324.78 275.892 333.818 274.727 342.541 273.139 C 336.385 284.643 327.921 294.619 317.149 303.065 C 315.995 296.701 314.262 289.967 311.955 282.867 Z M 280.602 265.429 C 271.627 264.94 262.779 263.835 254.057 262.123 C 252.644 256.007 248.992 251.783 243.093 249.454 C 242.582 242.237 242.322 235.932 242.322 230.546 C 242.322 222.469 242.705 214.087 243.476 205.396 C 243.735 205.396 244.056 205.272 244.439 205.031 C 244.821 204.784 245.079 204.66 245.209 204.66 C 250.207 209.312 254.568 213.595 258.289 217.51 C 269.442 229.262 278.936 242.601 286.759 257.535 C 283.933 259.616 281.885 262.247 280.602 265.429 Z M 297.723 289.296 C 297.976 289.296 298.684 289.231 299.838 289.108 C 302.016 296.577 303.619 303.982 304.645 311.324 C 300.929 313.404 296.439 315.486 291.183 317.564 C 292.077 308.018 293.62 298.535 295.798 289.108 C 296.821 289.231 297.463 289.296 297.723 289.296 Z M 296.759 245.418 C 296.629 245.661 296.472 246.031 296.282 246.52 C 296.084 247.008 295.927 247.378 295.798 247.618 C 287.722 233.668 278.227 221 267.327 209.619 C 263.354 205.337 258.609 200.685 253.094 195.667 C 253.223 195.667 253.32 195.575 253.382 195.392 L 253.482 195.114 C 264.254 197.197 274.576 199.767 284.446 202.825 C 290.473 204.66 297.081 207.112 304.262 210.172 C 304.003 211.395 303.879 212.312 303.879 212.925 C 303.879 216.594 305.032 219.964 307.34 223.022 C 303.107 230.732 299.579 238.198 296.759 245.418 Z M 305.798 256.065 C 307.34 251.783 308.111 249.578 308.111 249.454 C 310.671 243.336 313.88 236.79 317.728 229.814 C 319.394 230.304 320.999 230.546 322.535 230.546 C 326.896 230.546 330.808 229.138 334.269 226.327 C 340.555 230.486 346.706 235.138 352.734 240.28 C 351.968 247.255 350.426 253.982 348.119 260.471 C 337.6 262.554 326.508 264.022 314.841 264.876 C 313.176 260.96 310.159 258.023 305.798 256.065 Z M 340.999 212.741 C 340.999 208.7 339.594 205.031 336.768 201.725 C 339.464 198.421 342.153 195.421 344.849 192.73 C 349.463 202.766 352.16 213.106 352.925 223.757 C 348.694 220.693 344.59 217.941 340.617 215.493 C 340.876 214.393 340.999 213.477 340.999 212.741 Z" fill="#000000" style="" transform="matrix(0.996546, -0.083045, 0.083045, 0.996546, -18.259083, 21.925915)"/>
  <text style="fill: #000; font-family: Arial, sans-serif; font-size: 36.4px; white-space: pre; font-weight: 600;" transform="matrix(2.077826, 0, 0, 1.543515, -176.732956, -171.964264)" x="167.586" y="363.379">WAF</text>
</svg>