<svg width="35" height="35" viewBox="0 0 35 35" fill="none" xmlns="http://www.w3.org/2000/svg">
<path d="M28.4375 24.0625C27.665 24.0663 26.9084 24.2819 26.25 24.6859L22.8703 21.2953C23.6567 20.186 24.0791 18.8598 24.0791 17.5C24.0791 16.1402 23.6567 14.814 22.8703 13.7047L26.25 10.3141C26.9084 10.7181 27.665 10.9337 28.4375 10.9375C29.3028 10.9375 30.1487 10.6809 30.8681 10.2002C31.5876 9.71945 32.1483 9.03617 32.4795 8.23674C32.8106 7.43731 32.8972 6.55765 32.7284 5.70898C32.5596 4.86031 32.1429 4.08076 31.5311 3.46891C30.9192 2.85706 30.1397 2.44038 29.291 2.27157C28.4424 2.10276 27.5627 2.1894 26.7633 2.52053C25.9638 2.85166 25.2806 3.41242 24.7998 4.13188C24.3191 4.85135 24.0625 5.69721 24.0625 6.5625C24.0663 7.33497 24.2819 8.0916 24.6859 8.75L21.2953 12.1297C20.186 11.3433 18.8598 10.9209 17.5 10.9209C16.1402 10.9209 14.814 11.3433 13.7047 12.1297L10.3141 8.75C10.7181 8.0916 10.9337 7.33497 10.9375 6.5625C10.9375 5.69721 10.6809 4.85135 10.2002 4.13188C9.71945 3.41242 9.03617 2.85166 8.23674 2.52053C7.43731 2.1894 6.55765 2.10276 5.70898 2.27157C4.86031 2.44038 4.08076 2.85706 3.46891 3.46891C2.85706 4.08076 2.44038 4.86031 2.27157 5.70898C2.10276 6.55765 2.1894 7.43731 2.52053 8.23674C2.85166 9.03617 3.41242 9.71945 4.13188 10.2002C4.85135 10.6809 5.69721 10.9375 6.5625 10.9375C7.33497 10.9337 8.0916 10.7181 8.75 10.3141L12.1297 13.7047C11.3433 14.814 10.9209 16.1402 10.9209 17.5C10.9209 18.8598 11.3433 20.186 12.1297 21.2953L8.75 24.6859C8.0916 24.2819 7.33497 24.0663 6.5625 24.0625C5.69721 24.0625 4.85135 24.3191 4.13188 24.7998C3.41242 25.2806 2.85166 25.9638 2.52053 26.7633C2.1894 27.5627 2.10276 28.4424 2.27157 29.291C2.44038 30.1397 2.85706 30.9192 3.46891 31.5311C4.08076 32.1429 4.86031 32.5596 5.70898 32.7284C6.55765 32.8972 7.43731 32.8106 8.23674 32.4795C9.03617 32.1483 9.71945 31.5876 10.2002 30.8681C10.6809 30.1487 10.9375 29.3028 10.9375 28.4375C10.9337 27.665 10.7181 26.9084 10.3141 26.25L13.7047 22.8703C14.814 23.6567 16.1402 24.0791 17.5 24.0791C18.8598 24.0791 20.186 23.6567 21.2953 22.8703L24.6859 26.25C24.2819 26.9084 24.0663 27.665 24.0625 28.4375C24.0625 29.3028 24.3191 30.1487 24.7998 30.8681C25.2806 31.5876 25.9638 32.1483 26.7633 32.4795C27.5627 32.8106 28.4424 32.8972 29.291 32.7284C30.1397 32.5596 30.9192 32.1429 31.5311 31.5311C32.1429 30.9192 32.5596 30.1397 32.7284 29.291C32.8972 28.4424 32.8106 27.5627 32.4795 26.7633C32.1483 25.9638 31.5876 25.2806 30.8681 24.7998C30.1487 24.3191 29.3028 24.0625 28.4375 24.0625ZM28.4375 4.375C28.8701 4.375 29.2931 4.5033 29.6528 4.74366C30.0125 4.98403 30.2929 5.32567 30.4585 5.72538C30.6241 6.1251 30.6674 6.56493 30.583 6.98926C30.4986 7.4136 30.2902 7.80337 29.9843 8.1093C29.6784 8.41523 29.2886 8.62356 28.8643 8.70797C28.4399 8.79238 28.0001 8.74906 27.6004 8.58349C27.2007 8.41792 26.859 8.13754 26.6187 7.77781C26.3783 7.41808 26.25 6.99515 26.25 6.5625C26.25 5.98234 26.4805 5.42594 26.8907 5.01571C27.3009 4.60547 27.8573 4.375 28.4375 4.375ZM4.375 6.5625C4.375 6.12986 4.5033 5.70692 4.74366 5.34719C4.98403 4.98746 5.32567 4.70708 5.72538 4.54152C6.1251 4.37595 6.56493 4.33263 6.98926 4.41703C7.4136 4.50144 7.80337 4.70978 8.1093 5.01571C8.41523 5.32163 8.62356 5.71141 8.70797 6.13574C8.79238 6.56008 8.74906 6.99991 8.58349 7.39962C8.41792 7.79934 8.13754 8.14098 7.77781 8.38134C7.41808 8.62171 6.99515 8.75 6.5625 8.75C5.98234 8.75 5.42594 8.51953 5.01571 8.1093C4.60547 7.69906 4.375 7.14266 4.375 6.5625ZM6.5625 30.625C6.12986 30.625 5.70692 30.4967 5.34719 30.2563C4.98746 30.016 4.70708 29.6743 4.54152 29.2746C4.37595 28.8749 4.33263 28.4351 4.41703 28.0107C4.50144 27.5864 4.70978 27.1966 5.01571 26.8907C5.32163 26.5848 5.71141 26.3764 6.13574 26.292C6.56008 26.2076 6.99991 26.2509 7.39962 26.4165C7.79934 26.5821 8.14098 26.8625 8.38134 27.2222C8.62171 27.5819 8.75 28.0049 8.75 28.4375C8.75 29.0177 8.51953 29.5741 8.1093 29.9843C7.69906 30.3945 7.14266 30.625 6.5625 30.625ZM17.5 21.875C16.6347 21.875 15.7888 21.6184 15.0694 21.1377C14.3499 20.6569 13.7892 19.9737 13.458 19.1742C13.1269 18.3748 13.0403 17.4951 13.2091 16.6465C13.3779 15.7978 13.7946 15.0183 14.4064 14.4064C15.0183 13.7946 15.7978 13.3779 16.6465 13.2091C17.4951 13.0403 18.3748 13.1269 19.1742 13.458C19.9737 13.7892 20.6569 14.3499 21.1377 15.0694C21.6184 15.7888 21.875 16.6347 21.875 17.5C21.875 18.6603 21.4141 19.7731 20.5936 20.5936C19.7731 21.4141 18.6603 21.875 17.5 21.875ZM28.4375 30.625C28.0049 30.625 27.5819 30.4967 27.2222 30.2563C26.8625 30.016 26.5821 29.6743 26.4165 29.2746C26.2509 28.8749 26.2076 28.4351 26.292 28.0107C26.3764 27.5864 26.5848 27.1966 26.8907 26.8907C27.1966 26.5848 27.5864 26.3764 28.0107 26.292C28.4351 26.2076 28.8749 26.2509 29.2746 26.4165C29.6743 26.5821 30.016 26.8625 30.2563 27.2222C30.4967 27.5819 30.625 28.0049 30.625 28.4375C30.625 29.0177 30.3945 29.5741 29.9843 29.9843C29.5741 30.3945 29.0177 30.625 28.4375 30.625Z" fill="#253238"/>
</svg>
